<svg xmlns="http://www.w3.org/2000/svg" xmlns:xlink="http://www.w3.org/1999/xlink" width="2000" zoomAndPan="magnify" viewBox="0 0 1500 1499.999933" height="2000" preserveAspectRatio="xMidYMid meet" version="1.0"><defs><filter x="0%" y="0%" width="100%" height="100%" id="c0d08a37bf"><feColorMatrix values="0 0 0 0 1 0 0 0 0 1 0 0 0 0 1 0 0 0 1 0" color-interpolation-filters="sRGB"/></filter><g/><mask id="796dc4e3e4"><g filter="url(#c0d08a37bf)"><rect x="-150" width="1800" fill="#000000" y="-149.999993" height="1799.99992" fill-opacity="0.9"/></g></mask><clipPath id="3591a75ea6"><path d="M 1.175781 0.289062 L 79.425781 0.289062 L 79.425781 33.023438 L 1.175781 33.023438 Z M 1.175781 0.289062 " clip-rule="nonzero"/></clipPath><clipPath id="f7610d9579"><path d="M 17.539062 0.289062 L 63.03125 0.289062 C 72.070312 0.289062 79.398438 7.617188 79.398438 16.65625 C 79.398438 25.695312 72.070312 33.023438 63.03125 33.023438 L 17.539062 33.023438 C 8.503906 33.023438 1.175781 25.695312 1.175781 16.65625 C 1.175781 7.617188 8.503906 0.289062 17.539062 0.289062 Z M 17.539062 0.289062 " clip-rule="nonzero"/></clipPath><clipPath id="db57548598"><path d="M 0.175781 0.289062 L 78.425781 0.289062 L 78.425781 33.023438 L 0.175781 33.023438 Z M 0.175781 0.289062 " clip-rule="nonzero"/></clipPath><clipPath id="cd977d6480"><path d="M 16.539062 0.289062 L 62.03125 0.289062 C 71.070312 0.289062 78.398438 7.617188 78.398438 16.65625 C 78.398438 25.695312 71.070312 33.023438 62.03125 33.023438 L 16.539062 33.023438 C 7.503906 33.023438 0.175781 25.695312 0.175781 16.65625 C 0.175781 7.617188 7.503906 0.289062 16.539062 0.289062 Z M 16.539062 0.289062 " clip-rule="nonzero"/></clipPath><clipPath id="8009736562"><rect x="0" width="79" y="0" height="34"/></clipPath><clipPath id="c2169aa8b2"><rect x="0" width="80" y="0" height="34"/></clipPath><clipPath id="79846dbe57"><path d="M 805.984375 593.21875 L 850.382812 593.21875 L 850.382812 637.621094 L 805.984375 637.621094 Z M 805.984375 593.21875 " clip-rule="nonzero"/></clipPath><clipPath id="3080f42d4f"><path d="M 828.183594 593.21875 C 815.921875 593.21875 805.984375 603.160156 805.984375 615.421875 C 805.984375 627.679688 815.921875 637.621094 828.183594 637.621094 C 840.445312 637.621094 850.382812 627.679688 850.382812 615.421875 C 850.382812 603.160156 840.445312 593.21875 828.183594 593.21875 Z M 828.183594 593.21875 " clip-rule="nonzero"/></clipPath><clipPath id="4d93b9d81c"><path d="M 0.984375 0.21875 L 45.382812 0.21875 L 45.382812 44.621094 L 0.984375 44.621094 Z M 0.984375 0.21875 " clip-rule="nonzero"/></clipPath><clipPath id="070a6cf63e"><path d="M 23.183594 0.21875 C 10.921875 0.21875 0.984375 10.160156 0.984375 22.421875 C 0.984375 34.679688 10.921875 44.621094 23.183594 44.621094 C 35.445312 44.621094 45.382812 34.679688 45.382812 22.421875 C 45.382812 10.160156 35.445312 0.21875 23.183594 0.21875 Z M 23.183594 0.21875 " clip-rule="nonzero"/></clipPath><clipPath id="ee22057d30"><rect x="0" width="46" y="0" height="45"/></clipPath><clipPath id="bf7ae95ddf"><path d="M 258 0.160156 L 317 0.160156 L 317 79 L 258 79 Z M 258 0.160156 " clip-rule="nonzero"/></clipPath><clipPath id="ddf075b84b"><rect x="0" width="388" y="0" height="106"/></clipPath><mask id="012906abe4"><g filter="url(#c0d08a37bf)"><rect x="-150" width="1800" fill="#000000" y="-149.999993" height="1799.99992" fill-opacity="0.9"/></g></mask><clipPath id="21f0cf2cb8"><path d="M 0.152344 0 L 102.429688 0 L 102.429688 44.679688 L 0.152344 44.679688 Z M 0.152344 0 " clip-rule="nonzero"/></clipPath><clipPath id="3a3c4f092b"><path d="M 22.492188 0 L 79.945312 0 C 85.871094 0 91.550781 2.355469 95.742188 6.542969 C 99.933594 10.734375 102.285156 16.414062 102.285156 22.339844 C 102.285156 28.265625 99.933594 33.949219 95.742188 38.136719 C 91.550781 42.328125 85.871094 44.679688 79.945312 44.679688 L 22.492188 44.679688 C 16.566406 44.679688 10.886719 42.328125 6.695312 38.136719 C 2.507812 33.949219 0.152344 28.265625 0.152344 22.339844 C 0.152344 16.414062 2.507812 10.734375 6.695312 6.542969 C 10.886719 2.355469 16.566406 0 22.492188 0 Z M 22.492188 0 " clip-rule="nonzero"/></clipPath><clipPath id="9d28b4e82d"><path d="M 0.152344 0 L 102.320312 0 L 102.320312 44.679688 L 0.152344 44.679688 Z M 0.152344 0 " clip-rule="nonzero"/></clipPath><clipPath id="62b3371656"><path d="M 22.492188 0 L 79.945312 0 C 85.871094 0 91.550781 2.355469 95.742188 6.542969 C 99.933594 10.734375 102.285156 16.414062 102.285156 22.339844 C 102.285156 28.265625 99.933594 33.949219 95.742188 38.136719 C 91.550781 42.328125 85.871094 44.679688 79.945312 44.679688 L 22.492188 44.679688 C 16.566406 44.679688 10.886719 42.328125 6.695312 38.136719 C 2.507812 33.949219 0.152344 28.265625 0.152344 22.339844 C 0.152344 16.414062 2.507812 10.734375 6.695312 6.542969 C 10.886719 2.355469 16.566406 0 22.492188 0 Z M 22.492188 0 " clip-rule="nonzero"/></clipPath><clipPath id="81a723c623"><rect x="0" width="103" y="0" height="45"/></clipPath><clipPath id="4c86fc5dd5"><rect x="0" width="103" y="0" height="45"/></clipPath></defs><rect x="-150" width="1800" fill="#ffffff" y="-149.999993" height="1799.99992" fill-opacity="1"/><rect x="-150" width="1800" fill="#0B0B10" y="-149.999993" height="1799.99992" fill-opacity="1"/><g mask="url(#796dc4e3e4)"><g transform="matrix(1, 0, 0, 1, 372, 815)"><g clip-path="url(#c2169aa8b2)"><g clip-path="url(#3591a75ea6)"><g clip-path="url(#f7610d9579)"><g transform="matrix(1, 0, 0, 1, 1, 0.000000000000113687)"><g clip-path="url(#8009736562)"><g clip-path="url(#db57548598)"><g clip-path="url(#cd977d6480)"><path fill="#7f16f6" d="M 0.175781 0.289062 L 78.425781 0.289062 L 78.425781 33.023438 L 0.175781 33.023438 Z M 0.175781 0.289062 " fill-opacity="1" fill-rule="nonzero"/></g></g></g></g></g></g></g></g></g><g fill="#ffffff" fill-opacity="1"><g transform="translate(456.546714, 795.240392)"><g><path d="M 84.453125 0 L 23.578125 0 C 19.015625 0 15.285156 -1.570312 12.390625 -4.71875 C 9.503906 -7.863281 8.0625 -12.019531 8.0625 -17.1875 C 8.0625 -22.257812 9.476562 -26.289062 12.3125 -29.28125 C 15.15625 -32.28125 18.910156 -33.78125 23.578125 -33.78125 L 81.40625 -33.78125 C 84.75 -33.78125 87.742188 -34.796875 90.390625 -36.828125 C 93.328125 -39.160156 94.796875 -42.253906 94.796875 -46.109375 C 94.796875 -50.054688 93.328125 -53.046875 90.390625 -55.078125 C 87.847656 -56.703125 84.648438 -57.515625 80.796875 -57.515625 L 54.625 -57.515625 C 48.4375 -57.515625 42.65625 -58.734375 37.28125 -61.171875 C 31.90625 -63.609375 27.238281 -67.003906 23.28125 -71.359375 C 19.320312 -75.722656 16.226562 -80.664062 14 -86.1875 C 11.769531 -91.71875 10.65625 -97.476562 10.65625 -103.46875 C 10.65625 -109.25 11.796875 -114.800781 14.078125 -120.125 C 16.359375 -125.457031 19.523438 -130.097656 23.578125 -134.046875 C 27.640625 -138.109375 32.332031 -141.253906 37.65625 -143.484375 C 42.976562 -145.710938 48.632812 -146.828125 54.625 -146.828125 L 104.53125 -146.828125 C 109.300781 -146.828125 113.304688 -145.359375 116.546875 -142.421875 C 119.796875 -139.484375 121.421875 -135.476562 121.421875 -130.40625 C 121.421875 -125.332031 119.847656 -121.171875 116.703125 -117.921875 C 113.460938 -114.679688 109.660156 -113.0625 105.296875 -113.0625 L 55.078125 -113.0625 C 52.140625 -113.0625 49.628906 -111.992188 47.546875 -109.859375 C 45.472656 -107.734375 44.4375 -105.195312 44.4375 -102.25 C 44.4375 -99.007812 45.5 -96.398438 47.625 -94.421875 C 49.757812 -92.441406 52.242188 -91.453125 55.078125 -91.453125 L 83.84375 -91.453125 C 90.132812 -91.453125 96.039062 -90.234375 101.5625 -87.796875 C 107.09375 -85.359375 111.890625 -81.960938 115.953125 -77.609375 C 119.898438 -73.347656 122.988281 -68.398438 125.21875 -62.765625 C 127.457031 -57.140625 128.578125 -51.332031 128.578125 -45.34375 C 128.578125 -39.351562 127.507812 -33.617188 125.375 -28.140625 C 123.25 -22.671875 120.207031 -17.851562 116.25 -13.6875 C 112.195312 -9.425781 107.429688 -6.101562 101.953125 -3.71875 C 96.472656 -1.34375 90.640625 -0.101562 84.453125 0 Z M 84.453125 0 "/></g></g><g transform="translate(591.212118, 795.240392)"><g><path d="M 66.1875 1.671875 C 59.082031 1.671875 52.359375 0.324219 46.015625 -2.359375 C 39.679688 -5.046875 34.082031 -8.820312 29.21875 -13.6875 C 24.34375 -18.5625 20.5625 -24.140625 17.875 -30.421875 C 15.1875 -36.710938 13.84375 -43.410156 13.84375 -50.515625 L 13.84375 -129.9375 C 13.84375 -134.507812 15.519531 -138.46875 18.875 -141.8125 C 22.113281 -145.0625 26.117188 -146.6875 30.890625 -146.6875 C 35.347656 -146.6875 39.203125 -145.0625 42.453125 -141.8125 C 45.796875 -138.46875 47.46875 -134.507812 47.46875 -129.9375 L 48.078125 -51.4375 C 48.078125 -51.226562 48.050781 -50.867188 48 -50.359375 C 47.957031 -49.859375 47.882812 -49.253906 47.78125 -48.546875 C 48.59375 -43.972656 50.75 -40.210938 54.25 -37.265625 C 57.75 -34.328125 61.929688 -32.859375 66.796875 -32.859375 C 69.128906 -32.859375 71.410156 -33.335938 73.640625 -34.296875 C 75.878906 -35.265625 77.859375 -36.5625 79.578125 -38.1875 C 83.234375 -41.539062 85.160156 -45.753906 85.359375 -50.828125 L 85.671875 -52.796875 L 85.671875 -129.796875 C 85.671875 -134.554688 87.289062 -138.5625 90.53125 -141.8125 C 93.78125 -145.0625 97.789062 -146.6875 102.5625 -146.6875 C 107.125 -146.6875 111.023438 -145.0625 114.265625 -141.8125 C 117.515625 -138.5625 119.140625 -134.554688 119.140625 -129.796875 L 119.140625 -52.03125 C 119.140625 -50.914062 119.085938 -50.3125 118.984375 -50.21875 C 119.492188 -45.238281 121.523438 -41.179688 125.078125 -38.046875 C 128.628906 -34.796875 132.785156 -33.171875 137.546875 -33.171875 C 142.617188 -33.171875 147.082031 -34.894531 150.9375 -38.34375 C 154.789062 -41.59375 156.921875 -45.703125 157.328125 -50.671875 L 157.328125 -129.9375 C 157.328125 -134.601562 158.953125 -138.5625 162.203125 -141.8125 C 165.453125 -145.0625 169.457031 -146.6875 174.21875 -146.6875 C 178.789062 -146.6875 182.695312 -145.0625 185.9375 -141.8125 C 189.289062 -138.46875 190.96875 -134.507812 190.96875 -129.9375 L 190.96875 -50.515625 C 190.96875 -43.515625 189.570312 -36.867188 186.78125 -30.578125 C 183.988281 -24.296875 180.054688 -18.664062 174.984375 -13.6875 C 170.015625 -8.820312 164.257812 -5.046875 157.71875 -2.359375 C 151.175781 0.324219 144.351562 1.671875 137.25 1.671875 C 130.445312 1.671875 124.03125 0.457031 118 -1.96875 C 111.96875 -4.40625 106.566406 -7.859375 101.796875 -12.328125 C 96.828125 -7.859375 91.296875 -4.40625 85.203125 -1.96875 C 79.117188 0.457031 72.78125 1.671875 66.1875 1.671875 Z M 66.1875 1.671875 "/></g></g><g transform="translate(793.894964, 795.240392)"><g><path d="M 32.71875 -161.90625 C 27.644531 -161.90625 23.28125 -163.726562 19.625 -167.375 C 15.976562 -171.03125 14.15625 -175.394531 14.15625 -180.46875 C 14.15625 -185.539062 15.976562 -189.898438 19.625 -193.546875 C 23.175781 -197.097656 27.539062 -198.875 32.71875 -198.875 C 37.882812 -198.875 42.242188 -197.097656 45.796875 -193.546875 C 49.453125 -189.898438 51.28125 -185.539062 51.28125 -180.46875 C 51.28125 -175.394531 49.453125 -171.03125 45.796875 -167.375 C 42.148438 -163.726562 37.789062 -161.90625 32.71875 -161.90625 Z M 32.71875 1.375 C 27.945312 1.375 23.9375 -0.25 20.6875 -3.5 C 17.238281 -6.644531 15.515625 -10.601562 15.515625 -15.375 L 15.515625 -129.9375 C 15.515625 -134.601562 17.238281 -138.5625 20.6875 -141.8125 C 22.207031 -143.332031 24.03125 -144.546875 26.15625 -145.453125 C 28.289062 -146.367188 30.523438 -146.828125 32.859375 -146.828125 C 37.429688 -146.828125 41.390625 -145.15625 44.734375 -141.8125 C 47.878906 -138.46875 49.453125 -134.507812 49.453125 -129.9375 L 49.453125 -15.375 C 49.453125 -10.707031 47.828125 -6.75 44.578125 -3.5 C 41.335938 -0.25 37.382812 1.375 32.71875 1.375 Z M 32.71875 1.375 "/></g></g></g><g fill="#ffffff" fill-opacity="1"><g transform="translate(859.173447, 795.240392)"><g><path d="M 30.734375 52.640625 C 25.867188 52.640625 21.863281 50.914062 18.71875 47.46875 C 15.269531 44.226562 13.546875 40.070312 13.546875 35 L 13.546875 -72.421875 C 13.546875 -82.472656 15.472656 -92.035156 19.328125 -101.109375 C 23.179688 -110.191406 28.554688 -118.179688 35.453125 -125.078125 C 42.347656 -131.972656 50.3125 -137.320312 59.34375 -141.125 C 68.375 -144.925781 77.910156 -146.828125 87.953125 -146.828125 C 97.890625 -146.828125 107.394531 -144.898438 116.46875 -141.046875 C 125.550781 -137.191406 133.492188 -131.867188 140.296875 -125.078125 C 147.085938 -118.179688 152.410156 -110.191406 156.265625 -101.109375 C 160.117188 -92.035156 162.046875 -82.472656 162.046875 -72.421875 C 162.046875 -62.378906 160.144531 -52.867188 156.34375 -43.890625 C 152.539062 -34.921875 147.191406 -26.984375 140.296875 -20.078125 C 133.492188 -13.285156 125.550781 -7.960938 116.46875 -4.109375 C 107.394531 -0.253906 97.890625 1.671875 87.953125 1.671875 C 73.242188 1.671875 59.703125 -2.382812 47.328125 -10.5 L 47.328125 35 C 47.328125 40.070312 45.828125 44.28125 42.828125 47.625 C 39.835938 50.96875 35.804688 52.640625 30.734375 52.640625 Z M 87.953125 -32.109375 C 93.429688 -32.109375 98.628906 -33.144531 103.546875 -35.21875 C 108.460938 -37.300781 112.800781 -40.21875 116.5625 -43.96875 C 120.3125 -47.726562 123.195312 -52.039062 125.21875 -56.90625 C 127.25 -61.78125 128.265625 -66.953125 128.265625 -72.421875 C 128.265625 -77.898438 127.25 -83.070312 125.21875 -87.9375 C 123.195312 -92.8125 120.3125 -97.125 116.5625 -100.875 C 112.90625 -104.53125 108.59375 -107.394531 103.625 -109.46875 C 98.65625 -111.550781 93.429688 -112.59375 87.953125 -112.59375 C 82.472656 -112.59375 77.25 -111.550781 72.28125 -109.46875 C 67.3125 -107.394531 63 -104.53125 59.34375 -100.875 C 55.59375 -97.125 52.675781 -92.8125 50.59375 -87.9375 C 48.507812 -83.070312 47.46875 -77.898438 47.46875 -72.421875 C 47.46875 -66.953125 48.507812 -61.78125 50.59375 -56.90625 C 52.675781 -52.039062 55.59375 -47.726562 59.34375 -43.96875 C 63.09375 -40.21875 67.425781 -37.300781 72.34375 -35.21875 C 77.269531 -33.144531 82.472656 -32.109375 87.953125 -32.109375 Z M 87.953125 -32.109375 "/></g></g></g><g fill="#ffffff" fill-opacity="1"><g transform="translate(1027.923612, 795.240392)"><g><path d="M 80.953125 1.671875 C 70.910156 1.671875 61.398438 -0.226562 52.421875 -4.03125 C 43.441406 -7.832031 35.503906 -13.179688 28.609375 -20.078125 C 21.710938 -26.878906 16.332031 -34.789062 12.46875 -43.8125 C 8.613281 -52.84375 6.6875 -62.378906 6.6875 -72.421875 C 6.6875 -82.472656 8.613281 -92.035156 12.46875 -101.109375 C 16.332031 -110.191406 21.710938 -118.179688 28.609375 -125.078125 C 35.503906 -131.972656 43.441406 -137.320312 52.421875 -141.125 C 61.398438 -144.925781 70.910156 -146.828125 80.953125 -146.828125 C 90.992188 -146.828125 100.550781 -144.898438 109.625 -141.046875 C 118.707031 -137.191406 126.644531 -131.867188 133.4375 -125.078125 C 140.238281 -118.179688 145.566406 -110.191406 149.421875 -101.109375 C 153.273438 -92.035156 155.203125 -82.472656 155.203125 -72.421875 C 155.203125 -62.378906 153.300781 -52.867188 149.5 -43.890625 C 145.695312 -34.921875 140.34375 -26.984375 133.4375 -20.078125 C 126.644531 -13.285156 118.707031 -7.960938 109.625 -4.109375 C 100.550781 -0.253906 90.992188 1.671875 80.953125 1.671875 Z M 80.953125 -32.109375 C 86.523438 -32.109375 91.769531 -33.144531 96.6875 -35.21875 C 101.613281 -37.300781 105.953125 -40.21875 109.703125 -43.96875 C 113.460938 -47.726562 116.351562 -52.039062 118.375 -56.90625 C 120.40625 -61.78125 121.421875 -66.953125 121.421875 -72.421875 C 121.421875 -77.898438 120.378906 -83.070312 118.296875 -87.9375 C 116.222656 -92.8125 113.3125 -97.125 109.5625 -100.875 C 105.90625 -104.53125 101.59375 -107.394531 96.625 -109.46875 C 91.65625 -111.550781 86.429688 -112.59375 80.953125 -112.59375 C 75.578125 -112.59375 70.398438 -111.550781 65.421875 -109.46875 C 60.453125 -107.394531 56.144531 -104.53125 52.5 -100.875 C 48.738281 -97.125 45.816406 -92.8125 43.734375 -87.9375 C 41.660156 -83.070312 40.625 -77.898438 40.625 -72.421875 C 40.625 -66.953125 41.660156 -61.78125 43.734375 -56.90625 C 45.816406 -52.039062 48.738281 -47.726562 52.5 -43.96875 C 56.25 -40.21875 60.554688 -37.300781 65.421875 -35.21875 C 70.296875 -33.144531 75.472656 -32.109375 80.953125 -32.109375 Z M 80.953125 -32.109375 "/></g></g></g><g clip-path="url(#79846dbe57)"><g clip-path="url(#3080f42d4f)"><g transform="matrix(1, 0, 0, 1, 805, 593)"><g clip-path="url(#ee22057d30)"><g clip-path="url(#4d93b9d81c)"><g clip-path="url(#070a6cf63e)"><path fill="#7f16f6" d="M 0.984375 0.21875 L 45.382812 0.21875 L 45.382812 44.621094 L 0.984375 44.621094 Z M 0.984375 0.21875 " fill-opacity="1" fill-rule="nonzero"/></g></g></g></g></g></g><g transform="matrix(1, 0, 0, 1, 451, 842)"><g clip-path="url(#ddf075b84b)"><g fill="#7f16f6" fill-opacity="1"><g transform="translate(0.396664, 77.927744)"><g><path d="M 31.3125 0.640625 C 27.46875 0.640625 23.796875 -0.101562 20.296875 -1.59375 C 16.804688 -3.082031 13.75 -5.140625 11.125 -7.765625 C 8.457031 -10.429688 6.382812 -13.5 4.90625 -16.96875 C 3.4375 -20.445312 2.703125 -24.128906 2.703125 -28.015625 C 2.703125 -31.898438 3.445312 -35.597656 4.9375 -39.109375 C 6.4375 -42.617188 8.5 -45.710938 11.125 -48.390625 C 13.75 -51.015625 16.804688 -53.070312 20.296875 -54.5625 C 23.796875 -56.050781 27.46875 -56.796875 31.3125 -56.796875 C 35.195312 -56.796875 38.875 -56.0625 42.34375 -54.59375 C 45.820312 -53.125 48.894531 -51.054688 51.5625 -48.390625 C 54.1875 -45.710938 56.234375 -42.628906 57.703125 -39.140625 C 59.179688 -35.648438 59.921875 -31.941406 59.921875 -28.015625 L 59.921875 -6.1875 C 59.921875 -4.332031 59.273438 -2.757812 57.984375 -1.46875 C 56.765625 -0.132812 55.191406 0.53125 53.265625 0.53125 C 51.734375 0.53125 50.414062 0.105469 49.3125 -0.734375 C 48.21875 -1.578125 47.476562 -2.707031 47.09375 -4.125 C 42.34375 -0.945312 37.082031 0.640625 31.3125 0.640625 Z M 31.3125 -12.421875 C 33.4375 -12.421875 35.445312 -12.820312 37.34375 -13.625 C 39.25 -14.425781 40.925781 -15.554688 42.375 -17.015625 C 43.789062 -18.460938 44.890625 -20.128906 45.671875 -22.015625 C 46.460938 -23.898438 46.859375 -25.898438 46.859375 -28.015625 C 46.859375 -30.140625 46.460938 -32.140625 45.671875 -34.015625 C 44.890625 -35.898438 43.789062 -37.570312 42.375 -39.03125 C 40.96875 -40.4375 39.300781 -41.539062 37.375 -42.34375 C 35.457031 -43.15625 33.4375 -43.5625 31.3125 -43.5625 C 29.226562 -43.5625 27.242188 -43.164062 25.359375 -42.375 C 23.484375 -41.59375 21.816406 -40.476562 20.359375 -39.03125 C 18.910156 -37.570312 17.789062 -35.898438 17 -34.015625 C 16.21875 -32.140625 15.828125 -30.140625 15.828125 -28.015625 C 15.828125 -25.898438 16.21875 -23.898438 17 -22.015625 C 17.789062 -20.128906 18.910156 -18.460938 20.359375 -17.015625 C 21.773438 -15.554688 23.425781 -14.425781 25.3125 -13.625 C 27.195312 -12.820312 29.195312 -12.421875 31.3125 -12.421875 Z M 31.3125 -12.421875 "/></g></g></g><g fill="#7f16f6" fill-opacity="1"><g transform="translate(65.666879, 77.927744)"><g><path d="M 19.84375 26.546875 C 18.070312 26.546875 16.441406 25.898438 14.953125 24.609375 C 13.492188 23.390625 12.765625 21.859375 12.765625 20.015625 C 12.765625 18.210938 13.726562 16.46875 15.65625 14.78125 C 17.34375 13.28125 19.660156 12.039062 22.609375 11.0625 C 24.484375 10.507812 26.285156 10.140625 28.015625 9.953125 C 28.835938 9.867188 29.769531 9.804688 30.8125 9.765625 C 31.851562 9.734375 33 9.71875 34.25 9.71875 C 38.84375 9.71875 42.160156 9.085938 44.203125 7.828125 C 45.222656 7.203125 45.957031 6.394531 46.40625 5.40625 C 46.863281 4.425781 47.09375 3.210938 47.09375 1.765625 C 47.09375 0.546875 46.953125 -0.410156 46.671875 -1.109375 C 46.398438 -1.816406 46.03125 -2.488281 45.5625 -3.125 C 41.164062 -0.613281 36.414062 0.640625 31.3125 0.640625 C 27.425781 0.640625 23.742188 -0.09375 20.265625 -1.5625 C 16.796875 -3.03125 13.726562 -5.097656 11.0625 -7.765625 C 8.394531 -10.398438 6.316406 -13.460938 4.828125 -16.953125 C 3.335938 -20.441406 2.59375 -24.128906 2.59375 -28.015625 C 2.59375 -31.898438 3.335938 -35.597656 4.828125 -39.109375 C 6.316406 -42.617188 8.394531 -45.710938 11.0625 -48.390625 C 13.726562 -51.054688 16.796875 -53.125 20.265625 -54.59375 C 23.742188 -56.0625 27.425781 -56.796875 31.3125 -56.796875 C 35.195312 -56.796875 38.894531 -56.050781 42.40625 -54.5625 C 45.914062 -53.070312 48.988281 -51.015625 51.625 -48.390625 C 54.25 -45.710938 56.304688 -42.617188 57.796875 -39.109375 C 59.285156 -35.597656 60.03125 -31.898438 60.03125 -28.015625 C 60.03125 -22.285156 58.441406 -17.03125 55.265625 -12.25 C 58.410156 -8.988281 59.984375 -4.359375 59.984375 1.640625 C 59.984375 5.179688 59.398438 8.285156 58.234375 10.953125 C 57.078125 13.617188 55.460938 15.851562 53.390625 17.65625 C 51.421875 19.34375 49.148438 20.617188 46.578125 21.484375 C 44.015625 22.347656 41.300781 22.78125 38.4375 22.78125 C 37.300781 22.78125 36.144531 22.722656 34.96875 22.609375 C 33.789062 22.484375 32.628906 22.421875 31.484375 22.421875 C 30.035156 22.421875 28.710938 22.617188 27.515625 23.015625 C 26.316406 23.410156 25.050781 24.117188 23.71875 25.140625 C 22.5 26.078125 21.207031 26.546875 19.84375 26.546875 Z M 31.3125 -12.421875 C 33.46875 -12.421875 35.5 -12.820312 37.40625 -13.625 C 39.3125 -14.425781 40.988281 -15.554688 42.4375 -17.015625 C 43.882812 -18.460938 45 -20.128906 45.78125 -22.015625 C 46.570312 -23.898438 46.96875 -25.898438 46.96875 -28.015625 C 46.96875 -30.140625 46.566406 -32.140625 45.765625 -34.015625 C 44.960938 -35.898438 43.832031 -37.570312 42.375 -39.03125 C 40.96875 -40.4375 39.300781 -41.539062 37.375 -42.34375 C 35.457031 -43.15625 33.4375 -43.5625 31.3125 -43.5625 C 29.226562 -43.5625 27.222656 -43.15625 25.296875 -42.34375 C 23.378906 -41.539062 21.71875 -40.4375 20.3125 -39.03125 C 18.851562 -37.570312 17.722656 -35.898438 16.921875 -34.015625 C 16.117188 -32.140625 15.71875 -30.140625 15.71875 -28.015625 C 15.71875 -25.898438 16.117188 -23.898438 16.921875 -22.015625 C 17.722656 -20.128906 18.851562 -18.460938 20.3125 -17.015625 C 21.757812 -15.554688 23.425781 -14.425781 25.3125 -13.625 C 27.195312 -12.820312 29.195312 -12.421875 31.3125 -12.421875 Z M 31.3125 -12.421875 "/></g></g></g><g fill="#7f16f6" fill-opacity="1"><g transform="translate(128.465183, 77.927744)"><g><path d="M 31.484375 0.640625 C 27.597656 0.640625 23.890625 -0.101562 20.359375 -1.59375 C 16.828125 -3.082031 13.726562 -5.140625 11.0625 -7.765625 C 8.394531 -10.398438 6.316406 -13.460938 4.828125 -16.953125 C 3.335938 -20.441406 2.59375 -24.128906 2.59375 -28.015625 C 2.59375 -31.941406 3.335938 -35.660156 4.828125 -39.171875 C 6.316406 -42.679688 8.394531 -45.753906 11.0625 -48.390625 C 13.726562 -51.015625 16.828125 -53.070312 20.359375 -54.5625 C 23.890625 -56.050781 27.597656 -56.796875 31.484375 -56.796875 C 35.335938 -56.796875 39.007812 -56.066406 42.5 -54.609375 C 45.988281 -53.160156 49.066406 -51.125 51.734375 -48.5 C 54.367188 -45.90625 56.453125 -42.863281 57.984375 -39.375 C 59.515625 -35.882812 60.316406 -32.21875 60.390625 -28.375 C 60.390625 -26.488281 59.789062 -24.972656 58.59375 -23.828125 C 57.394531 -22.691406 55.851562 -22.125 53.96875 -22.125 L 17.1875 -22.125 C 18.207031 -19.144531 20.03125 -16.695312 22.65625 -14.78125 C 25.207031 -12.851562 28.148438 -11.890625 31.484375 -11.890625 C 33.210938 -11.890625 34.644531 -12.035156 35.78125 -12.328125 C 36.925781 -12.617188 38.023438 -13.082031 39.078125 -13.71875 C 40.492188 -14.539062 41.769531 -14.953125 42.90625 -14.953125 C 44.675781 -14.953125 46.207031 -14.265625 47.5 -12.890625 C 48.71875 -11.554688 49.328125 -9.988281 49.328125 -8.1875 C 49.328125 -6.882812 48.894531 -5.679688 48.03125 -4.578125 C 47.164062 -3.484375 45.945312 -2.546875 44.375 -1.765625 C 42.8125 -0.984375 40.921875 -0.390625 38.703125 0.015625 C 36.484375 0.429688 34.078125 0.640625 31.484375 0.640625 Z M 16.78125 -33.078125 L 46.96875 -33.078125 C 46.03125 -36.378906 44.1875 -39.085938 41.4375 -41.203125 C 38.65625 -43.285156 35.414062 -44.328125 31.71875 -44.328125 C 28.070312 -44.328125 24.875 -43.242188 22.125 -41.078125 C 20.832031 -40.097656 19.722656 -38.910156 18.796875 -37.515625 C 17.878906 -36.128906 17.207031 -34.648438 16.78125 -33.078125 Z M 16.78125 -33.078125 "/></g></g></g><g fill="#7f16f6" fill-opacity="1"><g transform="translate(191.381197, 77.927744)"><g><path d="M 10.484375 0 C 8.597656 0 7.023438 -0.628906 5.765625 -1.890625 C 4.390625 -3.140625 3.703125 -4.648438 3.703125 -6.421875 L 3.703125 -28.953125 C 3.703125 -32.765625 4.410156 -36.359375 5.828125 -39.734375 C 7.242188 -43.109375 9.222656 -46.085938 11.765625 -48.671875 C 14.285156 -51.265625 17.210938 -53.265625 20.546875 -54.671875 C 23.878906 -56.085938 27.445312 -56.796875 31.25 -56.796875 C 35.0625 -56.796875 38.671875 -56.078125 42.078125 -54.640625 C 45.492188 -53.210938 48.476562 -51.222656 51.03125 -48.671875 C 53.625 -46.085938 55.632812 -43.097656 57.0625 -39.703125 C 58.5 -36.304688 59.21875 -32.722656 59.21875 -28.953125 L 59.21875 -6.421875 C 59.21875 -4.609375 58.609375 -3.097656 57.390625 -1.890625 C 56.128906 -0.628906 54.597656 0 52.796875 0 C 50.953125 0 49.398438 -0.628906 48.140625 -1.890625 C 46.804688 -3.097656 46.140625 -4.609375 46.140625 -6.421875 L 46.140625 -28.90625 C 46.109375 -30.90625 45.695312 -32.804688 44.90625 -34.609375 C 44.125 -36.410156 43.046875 -37.976562 41.671875 -39.3125 C 40.296875 -40.6875 38.707031 -41.753906 36.90625 -42.515625 C 35.101562 -43.285156 33.21875 -43.671875 31.25 -43.671875 C 29.207031 -43.671875 27.3125 -43.296875 25.5625 -42.546875 C 23.820312 -41.804688 22.285156 -40.769531 20.953125 -39.4375 C 19.660156 -38.101562 18.648438 -36.523438 17.921875 -34.703125 C 17.191406 -32.878906 16.828125 -30.960938 16.828125 -28.953125 L 16.828125 -6.421875 C 16.828125 -4.609375 16.222656 -3.097656 15.015625 -1.890625 C 13.753906 -0.628906 12.242188 0 10.484375 0 Z M 10.484375 0 "/></g></g></g><g clip-path="url(#bf7ae95ddf)"><g fill="#7f16f6" fill-opacity="1"><g transform="translate(256.004007, 77.927744)"><g><path d="M 31.3125 0.640625 C 27.425781 0.640625 23.742188 -0.09375 20.265625 -1.5625 C 16.796875 -3.03125 13.726562 -5.097656 11.0625 -7.765625 C 8.394531 -10.398438 6.316406 -13.460938 4.828125 -16.953125 C 3.335938 -20.441406 2.59375 -24.128906 2.59375 -28.015625 C 2.59375 -31.898438 3.335938 -35.597656 4.828125 -39.109375 C 6.316406 -42.617188 8.394531 -45.710938 11.0625 -48.390625 C 13.726562 -51.054688 16.796875 -53.125 20.265625 -54.59375 C 23.742188 -56.0625 27.425781 -56.796875 31.3125 -56.796875 C 35.28125 -56.796875 38.488281 -56.164062 40.9375 -54.90625 C 43.382812 -53.65625 45.394531 -51.738281 46.96875 -49.15625 L 46.96875 -70.8125 C 46.96875 -72.769531 47.578125 -74.378906 48.796875 -75.640625 C 50.085938 -76.929688 51.640625 -77.578125 53.453125 -77.578125 C 55.296875 -77.578125 56.863281 -76.929688 58.15625 -75.640625 C 59.40625 -74.265625 60.03125 -72.65625 60.03125 -70.8125 L 60.03125 -27.71875 C 60 -23.875 59.234375 -20.234375 57.734375 -16.796875 C 56.242188 -13.367188 54.164062 -10.335938 51.5 -7.703125 C 48.875 -5.078125 45.8125 -3.03125 42.3125 -1.5625 C 38.820312 -0.09375 35.15625 0.640625 31.3125 0.640625 Z M 31.3125 -12.421875 C 33.46875 -12.421875 35.5 -12.820312 37.40625 -13.625 C 39.3125 -14.425781 40.988281 -15.554688 42.4375 -17.015625 C 43.882812 -18.460938 45 -20.128906 45.78125 -22.015625 C 46.570312 -23.898438 46.96875 -25.898438 46.96875 -28.015625 C 46.96875 -30.140625 46.566406 -32.140625 45.765625 -34.015625 C 44.960938 -35.898438 43.832031 -37.570312 42.375 -39.03125 C 40.96875 -40.4375 39.300781 -41.539062 37.375 -42.34375 C 35.457031 -43.15625 33.4375 -43.5625 31.3125 -43.5625 C 29.226562 -43.5625 27.222656 -43.15625 25.296875 -42.34375 C 23.378906 -41.539062 21.71875 -40.4375 20.3125 -39.03125 C 18.851562 -37.570312 17.722656 -35.898438 16.921875 -34.015625 C 16.117188 -32.140625 15.71875 -30.140625 15.71875 -28.015625 C 15.71875 -25.898438 16.117188 -23.898438 16.921875 -22.015625 C 17.722656 -20.128906 18.851562 -18.460938 20.3125 -17.015625 C 21.757812 -15.554688 23.425781 -14.425781 25.3125 -13.625 C 27.195312 -12.820312 29.195312 -12.421875 31.3125 -12.421875 Z M 31.3125 -12.421875 "/></g></g></g></g><g fill="#7f16f6" fill-opacity="1"><g transform="translate(321.274222, 77.927744)"><g><path d="M 31.3125 0.640625 C 27.46875 0.640625 23.796875 -0.101562 20.296875 -1.59375 C 16.804688 -3.082031 13.75 -5.140625 11.125 -7.765625 C 8.457031 -10.429688 6.382812 -13.5 4.90625 -16.96875 C 3.4375 -20.445312 2.703125 -24.128906 2.703125 -28.015625 C 2.703125 -31.898438 3.445312 -35.597656 4.9375 -39.109375 C 6.4375 -42.617188 8.5 -45.710938 11.125 -48.390625 C 13.75 -51.015625 16.804688 -53.070312 20.296875 -54.5625 C 23.796875 -56.050781 27.46875 -56.796875 31.3125 -56.796875 C 35.195312 -56.796875 38.875 -56.0625 42.34375 -54.59375 C 45.820312 -53.125 48.894531 -51.054688 51.5625 -48.390625 C 54.1875 -45.710938 56.234375 -42.628906 57.703125 -39.140625 C 59.179688 -35.648438 59.921875 -31.941406 59.921875 -28.015625 L 59.921875 -6.1875 C 59.921875 -4.332031 59.273438 -2.757812 57.984375 -1.46875 C 56.765625 -0.132812 55.191406 0.53125 53.265625 0.53125 C 51.734375 0.53125 50.414062 0.105469 49.3125 -0.734375 C 48.21875 -1.578125 47.476562 -2.707031 47.09375 -4.125 C 42.34375 -0.945312 37.082031 0.640625 31.3125 0.640625 Z M 31.3125 -12.421875 C 33.4375 -12.421875 35.445312 -12.820312 37.34375 -13.625 C 39.25 -14.425781 40.925781 -15.554688 42.375 -17.015625 C 43.789062 -18.460938 44.890625 -20.128906 45.671875 -22.015625 C 46.460938 -23.898438 46.859375 -25.898438 46.859375 -28.015625 C 46.859375 -30.140625 46.460938 -32.140625 45.671875 -34.015625 C 44.890625 -35.898438 43.789062 -37.570312 42.375 -39.03125 C 40.96875 -40.4375 39.300781 -41.539062 37.375 -42.34375 C 35.457031 -43.15625 33.4375 -43.5625 31.3125 -43.5625 C 29.226562 -43.5625 27.242188 -43.164062 25.359375 -42.375 C 23.484375 -41.59375 21.816406 -40.476562 20.359375 -39.03125 C 18.910156 -37.570312 17.789062 -35.898438 17 -34.015625 C 16.21875 -32.140625 15.828125 -30.140625 15.828125 -28.015625 C 15.828125 -25.898438 16.21875 -23.898438 17 -22.015625 C 17.789062 -20.128906 18.910156 -18.460938 20.359375 -17.015625 C 21.773438 -15.554688 23.425781 -14.425781 25.3125 -13.625 C 27.195312 -12.820312 29.195312 -12.421875 31.3125 -12.421875 Z M 31.3125 -12.421875 "/></g></g></g></g></g><g mask="url(#012906abe4)"><g transform="matrix(1, 0, 0, 1, 310, 750)"><g clip-path="url(#4c86fc5dd5)"><g clip-path="url(#21f0cf2cb8)"><g clip-path="url(#3a3c4f092b)"><g transform="matrix(1, 0, 0, 1, -0.000000000000056843, 0.000000000000113687)"><g clip-path="url(#81a723c623)"><g clip-path="url(#9d28b4e82d)"><g clip-path="url(#62b3371656)"><path fill="#7f16f6" d="M 0.152344 0 L 102.253906 0 L 102.253906 44.679688 L 0.152344 44.679688 Z M 0.152344 0 " fill-opacity="1" fill-rule="nonzero"/></g></g></g></g></g></g></g></g></g></svg>