<svg xmlns="http://www.w3.org/2000/svg" xmlns:xlink="http://www.w3.org/1999/xlink" width="2000" zoomAndPan="magnify" viewBox="0 0 1500 1499.999933" height="2000" preserveAspectRatio="xMidYMid meet" version="1.0"><defs><filter x="0%" y="0%" width="100%" height="100%" id="8de9ddb560"><feColorMatrix values="0 0 0 0 1 0 0 0 0 1 0 0 0 0 1 0 0 0 1 0" color-interpolation-filters="sRGB"/></filter><g/><clipPath id="b19680fd63"><rect x="0" width="1500" y="0" height="1500"/></clipPath><clipPath id="202d3acb02"><rect x="0" width="1500" y="0" height="1500"/></clipPath><mask id="d449d82676"><g filter="url(#8de9ddb560)"><g transform="matrix(1, 0, 0, 1, 0, 0.000000000000112861)"><g clip-path="url(#202d3acb02)"><g transform="matrix(1, 0, 0, 1, 0, 0.000000000000112861)"><g clip-path="url(#b19680fd63)"><g fill="#000000" fill-opacity="1"><g transform="translate(150.515778, 996.727429)"><g><path d="M 284.71875 0 L 79.515625 0 C 64.128906 0 51.5625 -5.300781 41.8125 -15.90625 C 32.0625 -26.507812 27.1875 -40.53125 27.1875 -57.96875 C 27.1875 -75.070312 31.972656 -88.664062 41.546875 -98.75 C 51.128906 -108.84375 63.785156 -113.890625 79.515625 -113.890625 L 274.453125 -113.890625 C 285.742188 -113.890625 295.835938 -117.304688 304.734375 -124.140625 C 314.648438 -132.015625 319.609375 -142.445312 319.609375 -155.4375 C 319.609375 -168.78125 314.648438 -178.867188 304.734375 -185.703125 C 296.179688 -191.179688 285.40625 -193.921875 272.40625 -193.921875 L 184.171875 -193.921875 C 163.304688 -193.921875 143.8125 -198.023438 125.6875 -206.234375 C 107.5625 -214.441406 91.828125 -225.894531 78.484375 -240.59375 C 65.148438 -255.300781 54.71875 -271.972656 47.1875 -290.609375 C 39.664062 -309.253906 35.90625 -328.664062 35.90625 -348.84375 C 35.90625 -368.34375 39.753906 -387.066406 47.453125 -405.015625 C 55.148438 -422.972656 65.835938 -438.617188 79.515625 -451.953125 C 93.191406 -465.640625 109.007812 -476.242188 126.96875 -483.765625 C 144.925781 -491.285156 163.992188 -495.046875 184.171875 -495.046875 L 352.4375 -495.046875 C 368.507812 -495.046875 382.015625 -490.085938 392.953125 -480.171875 C 403.898438 -470.253906 409.375 -456.742188 409.375 -439.640625 C 409.375 -422.546875 404.078125 -408.523438 393.484375 -397.578125 C 382.535156 -386.640625 369.707031 -381.171875 355 -381.171875 L 185.703125 -381.171875 C 175.785156 -381.171875 167.320312 -377.578125 160.3125 -370.390625 C 153.300781 -363.210938 149.796875 -354.660156 149.796875 -344.734375 C 149.796875 -333.796875 153.382812 -324.988281 160.5625 -318.3125 C 167.75 -311.644531 176.128906 -308.3125 185.703125 -308.3125 L 282.671875 -308.3125 C 303.867188 -308.3125 323.785156 -304.207031 342.421875 -296 C 361.066406 -287.789062 377.226562 -276.335938 390.90625 -261.640625 C 404.25 -247.273438 414.679688 -230.597656 422.203125 -211.609375 C 429.722656 -192.628906 433.484375 -173.050781 433.484375 -152.875 C 433.484375 -132.695312 429.894531 -113.375 422.71875 -94.90625 C 415.539062 -76.4375 405.28125 -60.191406 391.9375 -46.171875 C 378.257812 -31.804688 362.1875 -20.601562 343.71875 -12.5625 C 325.25 -4.53125 305.582031 -0.34375 284.71875 0 Z M 284.71875 0 "/></g></g></g></g></g></g></g></g></mask><clipPath id="e9960fc9be"><path d="M 0 0 L 1500 0 L 1500 1500 L 0 1500 Z M 0 0 " clip-rule="nonzero"/></clipPath><linearGradient x1="302.67999" gradientTransform="matrix(0.74991, 0, 0, 0.749955, 150.039277, 14.646073)" y1="-19.529259" x2="302.67999" gradientUnits="userSpaceOnUse" y2="1980.589569" id="901bd7ce96"><stop stop-opacity="1" stop-color="rgb(61.569214%, 30.589294%, 100%)" offset="0"/><stop stop-opacity="1" stop-color="rgb(61.569214%, 30.589294%, 100%)" offset="0.125"/><stop stop-opacity="1" stop-color="rgb(61.569214%, 30.589294%, 100%)" offset="0.1875"/><stop stop-opacity="1" stop-color="rgb(61.599731%, 30.491638%, 99.983215%)" offset="0.21875"/><stop stop-opacity="1" stop-color="rgb(61.727905%, 30.093384%, 99.919128%)" offset="0.222656"/><stop stop-opacity="1" stop-color="rgb(61.825562%, 29.79126%, 99.8703%)" offset="0.226562"/><stop stop-opacity="1" stop-color="rgb(61.923218%, 29.489136%, 99.821472%)" offset="0.230469"/><stop stop-opacity="1" stop-color="rgb(62.020874%, 29.187012%, 99.77417%)" offset="0.234375"/><stop stop-opacity="1" stop-color="rgb(62.117004%, 28.883362%, 99.725342%)" offset="0.238281"/><stop stop-opacity="1" stop-color="rgb(62.214661%, 28.581238%, 99.676514%)" offset="0.242188"/><stop stop-opacity="1" stop-color="rgb(62.310791%, 28.279114%, 99.627686%)" offset="0.246094"/><stop stop-opacity="1" stop-color="rgb(62.408447%, 27.97699%, 99.578857%)" offset="0.25"/><stop stop-opacity="1" stop-color="rgb(62.506104%, 27.674866%, 99.530029%)" offset="0.253906"/><stop stop-opacity="1" stop-color="rgb(62.60376%, 27.372742%, 99.482727%)" offset="0.257812"/><stop stop-opacity="1" stop-color="rgb(62.69989%, 27.070618%, 99.433899%)" offset="0.261719"/><stop stop-opacity="1" stop-color="rgb(62.797546%, 26.768494%, 99.385071%)" offset="0.265625"/><stop stop-opacity="1" stop-color="rgb(62.895203%, 26.464844%, 99.336243%)" offset="0.269531"/><stop stop-opacity="1" stop-color="rgb(62.992859%, 26.16272%, 99.287415%)" offset="0.273438"/><stop stop-opacity="1" stop-color="rgb(63.088989%, 25.860596%, 99.238586%)" offset="0.277344"/><stop stop-opacity="1" stop-color="rgb(63.186646%, 25.558472%, 99.191284%)" offset="0.28125"/><stop stop-opacity="1" stop-color="rgb(63.282776%, 25.256348%, 99.142456%)" offset="0.285156"/><stop stop-opacity="1" stop-color="rgb(63.380432%, 24.954224%, 99.093628%)" offset="0.289062"/><stop stop-opacity="1" stop-color="rgb(63.478088%, 24.6521%, 99.0448%)" offset="0.292969"/><stop stop-opacity="1" stop-color="rgb(63.575745%, 24.349976%, 98.995972%)" offset="0.296875"/><stop stop-opacity="1" stop-color="rgb(63.671875%, 24.046326%, 98.947144%)" offset="0.300781"/><stop stop-opacity="1" stop-color="rgb(63.769531%, 23.744202%, 98.898315%)" offset="0.304688"/><stop stop-opacity="1" stop-color="rgb(63.867188%, 23.442078%, 98.849487%)" offset="0.308594"/><stop stop-opacity="1" stop-color="rgb(63.964844%, 23.139954%, 98.802185%)" offset="0.3125"/><stop stop-opacity="1" stop-color="rgb(64.060974%, 22.83783%, 98.753357%)" offset="0.316406"/><stop stop-opacity="1" stop-color="rgb(64.15863%, 22.535706%, 98.704529%)" offset="0.320312"/><stop stop-opacity="1" stop-color="rgb(64.254761%, 22.232056%, 98.655701%)" offset="0.324219"/><stop stop-opacity="1" stop-color="rgb(64.352417%, 21.929932%, 98.606873%)" offset="0.328125"/><stop stop-opacity="1" stop-color="rgb(64.450073%, 21.627808%, 98.558044%)" offset="0.332031"/><stop stop-opacity="1" stop-color="rgb(64.547729%, 21.325684%, 98.510742%)" offset="0.335937"/><stop stop-opacity="1" stop-color="rgb(64.64386%, 21.02356%, 98.461914%)" offset="0.339844"/><stop stop-opacity="1" stop-color="rgb(64.741516%, 20.721436%, 98.413086%)" offset="0.34375"/><stop stop-opacity="1" stop-color="rgb(64.839172%, 20.419312%, 98.364258%)" offset="0.347656"/><stop stop-opacity="1" stop-color="rgb(64.936829%, 20.117188%, 98.31543%)" offset="0.351562"/><stop stop-opacity="1" stop-color="rgb(65.032959%, 19.813538%, 98.266602%)" offset="0.355469"/><stop stop-opacity="1" stop-color="rgb(65.130615%, 19.511414%, 98.219299%)" offset="0.359375"/><stop stop-opacity="1" stop-color="rgb(65.226746%, 19.20929%, 98.170471%)" offset="0.363281"/><stop stop-opacity="1" stop-color="rgb(65.324402%, 18.907166%, 98.121643%)" offset="0.367188"/><stop stop-opacity="1" stop-color="rgb(65.422058%, 18.605042%, 98.072815%)" offset="0.371094"/><stop stop-opacity="1" stop-color="rgb(65.519714%, 18.302917%, 98.023987%)" offset="0.375"/><stop stop-opacity="1" stop-color="rgb(65.615845%, 18.000793%, 97.975159%)" offset="0.378906"/><stop stop-opacity="1" stop-color="rgb(65.713501%, 17.698669%, 97.926331%)" offset="0.382812"/><stop stop-opacity="1" stop-color="rgb(65.811157%, 17.39502%, 97.877502%)" offset="0.386719"/><stop stop-opacity="1" stop-color="rgb(65.908813%, 17.092896%, 97.8302%)" offset="0.390625"/><stop stop-opacity="1" stop-color="rgb(66.004944%, 16.790771%, 97.781372%)" offset="0.394531"/><stop stop-opacity="1" stop-color="rgb(66.1026%, 16.488647%, 97.732544%)" offset="0.398438"/><stop stop-opacity="1" stop-color="rgb(66.19873%, 16.186523%, 97.683716%)" offset="0.402344"/><stop stop-opacity="1" stop-color="rgb(66.296387%, 15.884399%, 97.634888%)" offset="0.40625"/><stop stop-opacity="1" stop-color="rgb(66.394043%, 15.58075%, 97.58606%)" offset="0.410156"/><stop stop-opacity="1" stop-color="rgb(66.491699%, 15.278625%, 97.538757%)" offset="0.414062"/><stop stop-opacity="1" stop-color="rgb(66.58783%, 14.976501%, 97.489929%)" offset="0.417969"/><stop stop-opacity="1" stop-color="rgb(66.685486%, 14.674377%, 97.441101%)" offset="0.421875"/><stop stop-opacity="1" stop-color="rgb(66.783142%, 14.372253%, 97.392273%)" offset="0.425781"/><stop stop-opacity="1" stop-color="rgb(66.880798%, 14.070129%, 97.343445%)" offset="0.429688"/><stop stop-opacity="1" stop-color="rgb(66.976929%, 13.768005%, 97.294617%)" offset="0.433594"/><stop stop-opacity="1" stop-color="rgb(67.074585%, 13.465881%, 97.247314%)" offset="0.4375"/><stop stop-opacity="1" stop-color="rgb(67.170715%, 13.162231%, 97.198486%)" offset="0.441406"/><stop stop-opacity="1" stop-color="rgb(67.268372%, 12.860107%, 97.149658%)" offset="0.445312"/><stop stop-opacity="1" stop-color="rgb(67.366028%, 12.557983%, 97.10083%)" offset="0.449219"/><stop stop-opacity="1" stop-color="rgb(67.463684%, 12.255859%, 97.052002%)" offset="0.453125"/><stop stop-opacity="1" stop-color="rgb(67.559814%, 11.953735%, 97.003174%)" offset="0.457031"/><stop stop-opacity="1" stop-color="rgb(67.657471%, 11.651611%, 96.954346%)" offset="0.460938"/><stop stop-opacity="1" stop-color="rgb(67.755127%, 11.349487%, 96.905518%)" offset="0.464844"/><stop stop-opacity="1" stop-color="rgb(67.852783%, 11.047363%, 96.858215%)" offset="0.46875"/><stop stop-opacity="1" stop-color="rgb(67.948914%, 10.743713%, 96.809387%)" offset="0.472656"/><stop stop-opacity="1" stop-color="rgb(68.04657%, 10.441589%, 96.760559%)" offset="0.476562"/><stop stop-opacity="1" stop-color="rgb(68.1427%, 10.139465%, 96.711731%)" offset="0.480469"/><stop stop-opacity="1" stop-color="rgb(68.240356%, 9.837341%, 96.662903%)" offset="0.484375"/><stop stop-opacity="1" stop-color="rgb(68.338013%, 9.535217%, 96.614075%)" offset="0.488281"/><stop stop-opacity="1" stop-color="rgb(68.435669%, 9.233093%, 96.566772%)" offset="0.492188"/><stop stop-opacity="1" stop-color="rgb(68.530273%, 8.930969%, 96.516418%)" offset="0.496094"/><stop stop-opacity="1" stop-color="rgb(68.626404%, 8.628845%, 96.466064%)" offset="0.5"/><stop stop-opacity="1" stop-color="rgb(67.735291%, 8.563232%, 95.504761%)" offset="0.503906"/><stop stop-opacity="1" stop-color="rgb(66.844177%, 8.499146%, 94.543457%)" offset="0.507812"/><stop stop-opacity="1" stop-color="rgb(65.953064%, 8.433533%, 93.582153%)" offset="0.511719"/><stop stop-opacity="1" stop-color="rgb(65.061951%, 8.369446%, 92.622375%)" offset="0.515625"/><stop stop-opacity="1" stop-color="rgb(64.170837%, 8.303833%, 91.661072%)" offset="0.519531"/><stop stop-opacity="1" stop-color="rgb(63.28125%, 8.239746%, 90.699768%)" offset="0.523438"/><stop stop-opacity="1" stop-color="rgb(62.390137%, 8.174133%, 89.738464%)" offset="0.527344"/><stop stop-opacity="1" stop-color="rgb(61.499023%, 8.110046%, 88.777161%)" offset="0.53125"/><stop stop-opacity="1" stop-color="rgb(60.60791%, 8.044434%, 87.815857%)" offset="0.535156"/><stop stop-opacity="1" stop-color="rgb(59.716797%, 7.980347%, 86.856079%)" offset="0.539062"/><stop stop-opacity="1" stop-color="rgb(58.825684%, 7.914734%, 85.894775%)" offset="0.542969"/><stop stop-opacity="1" stop-color="rgb(57.93457%, 7.850647%, 84.933472%)" offset="0.546875"/><stop stop-opacity="1" stop-color="rgb(57.043457%, 7.785034%, 83.972168%)" offset="0.550781"/><stop stop-opacity="1" stop-color="rgb(56.15387%, 7.720947%, 83.01239%)" offset="0.554688"/><stop stop-opacity="1" stop-color="rgb(55.262756%, 7.655334%, 82.051086%)" offset="0.558594"/><stop stop-opacity="1" stop-color="rgb(54.371643%, 7.591248%, 81.089783%)" offset="0.5625"/><stop stop-opacity="1" stop-color="rgb(53.48053%, 7.525635%, 80.128479%)" offset="0.566406"/><stop stop-opacity="1" stop-color="rgb(52.589417%, 7.461548%, 79.168701%)" offset="0.570312"/><stop stop-opacity="1" stop-color="rgb(51.698303%, 7.395935%, 78.207397%)" offset="0.574219"/><stop stop-opacity="1" stop-color="rgb(50.808716%, 7.331848%, 77.246094%)" offset="0.578125"/><stop stop-opacity="1" stop-color="rgb(49.917603%, 7.266235%, 76.28479%)" offset="0.582031"/><stop stop-opacity="1" stop-color="rgb(49.026489%, 7.202148%, 75.325012%)" offset="0.585938"/><stop stop-opacity="1" stop-color="rgb(48.135376%, 7.136536%, 74.363708%)" offset="0.589844"/><stop stop-opacity="1" stop-color="rgb(47.244263%, 7.072449%, 73.402405%)" offset="0.59375"/><stop stop-opacity="1" stop-color="rgb(46.353149%, 7.006836%, 72.441101%)" offset="0.597656"/><stop stop-opacity="1" stop-color="rgb(45.463562%, 6.942749%, 71.481323%)" offset="0.601562"/><stop stop-opacity="1" stop-color="rgb(44.572449%, 6.877136%, 70.52002%)" offset="0.605469"/><stop stop-opacity="1" stop-color="rgb(43.681335%, 6.813049%, 69.558716%)" offset="0.609375"/><stop stop-opacity="1" stop-color="rgb(42.790222%, 6.747437%, 68.597412%)" offset="0.613281"/><stop stop-opacity="1" stop-color="rgb(41.899109%, 6.68335%, 67.636108%)" offset="0.617187"/><stop stop-opacity="1" stop-color="rgb(41.007996%, 6.617737%, 66.674805%)" offset="0.621094"/><stop stop-opacity="1" stop-color="rgb(40.116882%, 6.55365%, 65.715027%)" offset="0.625"/><stop stop-opacity="1" stop-color="rgb(39.225769%, 6.488037%, 64.753723%)" offset="0.628906"/><stop stop-opacity="1" stop-color="rgb(38.336182%, 6.42395%, 63.792419%)" offset="0.632813"/><stop stop-opacity="1" stop-color="rgb(37.445068%, 6.358337%, 62.831116%)" offset="0.636719"/><stop stop-opacity="1" stop-color="rgb(36.553955%, 6.29425%, 61.871338%)" offset="0.640625"/><stop stop-opacity="1" stop-color="rgb(35.662842%, 6.228638%, 60.910034%)" offset="0.644531"/><stop stop-opacity="1" stop-color="rgb(34.771729%, 6.164551%, 59.94873%)" offset="0.648438"/><stop stop-opacity="1" stop-color="rgb(33.880615%, 6.098938%, 58.987427%)" offset="0.652344"/><stop stop-opacity="1" stop-color="rgb(32.991028%, 6.034851%, 58.027649%)" offset="0.65625"/><stop stop-opacity="1" stop-color="rgb(32.099915%, 5.969238%, 57.066345%)" offset="0.660156"/><stop stop-opacity="1" stop-color="rgb(31.208801%, 5.905151%, 56.105042%)" offset="0.664062"/><stop stop-opacity="1" stop-color="rgb(30.317688%, 5.839539%, 55.143738%)" offset="0.667969"/><stop stop-opacity="1" stop-color="rgb(29.426575%, 5.775452%, 54.18396%)" offset="0.671875"/><stop stop-opacity="1" stop-color="rgb(28.535461%, 5.709839%, 53.222656%)" offset="0.675781"/><stop stop-opacity="1" stop-color="rgb(27.645874%, 5.645752%, 52.261353%)" offset="0.679688"/><stop stop-opacity="1" stop-color="rgb(26.754761%, 5.580139%, 51.300049%)" offset="0.683594"/><stop stop-opacity="1" stop-color="rgb(25.863647%, 5.516052%, 50.338745%)" offset="0.6875"/><stop stop-opacity="1" stop-color="rgb(24.972534%, 5.450439%, 49.377441%)" offset="0.691406"/><stop stop-opacity="1" stop-color="rgb(24.081421%, 5.386353%, 48.417664%)" offset="0.695312"/><stop stop-opacity="1" stop-color="rgb(23.190308%, 5.32074%, 47.45636%)" offset="0.699219"/><stop stop-opacity="1" stop-color="rgb(22.299194%, 5.256653%, 46.495056%)" offset="0.703125"/><stop stop-opacity="1" stop-color="rgb(21.408081%, 5.19104%, 45.533752%)" offset="0.707031"/><stop stop-opacity="1" stop-color="rgb(20.518494%, 5.126953%, 44.573975%)" offset="0.710938"/><stop stop-opacity="1" stop-color="rgb(19.62738%, 5.06134%, 43.612671%)" offset="0.714844"/><stop stop-opacity="1" stop-color="rgb(18.736267%, 4.997253%, 42.651367%)" offset="0.71875"/><stop stop-opacity="1" stop-color="rgb(17.845154%, 4.931641%, 41.690063%)" offset="0.722656"/><stop stop-opacity="1" stop-color="rgb(16.954041%, 4.867554%, 40.730286%)" offset="0.726562"/><stop stop-opacity="1" stop-color="rgb(16.062927%, 4.801941%, 39.768982%)" offset="0.730469"/><stop stop-opacity="1" stop-color="rgb(15.17334%, 4.737854%, 38.807678%)" offset="0.734375"/><stop stop-opacity="1" stop-color="rgb(14.282227%, 4.672241%, 37.846375%)" offset="0.738281"/><stop stop-opacity="1" stop-color="rgb(13.391113%, 4.608154%, 36.886597%)" offset="0.742188"/><stop stop-opacity="1" stop-color="rgb(12.5%, 4.542542%, 35.925293%)" offset="0.746094"/><stop stop-opacity="1" stop-color="rgb(11.608887%, 4.478455%, 34.963989%)" offset="0.75"/><stop stop-opacity="1" stop-color="rgb(10.717773%, 4.412842%, 34.002686%)" offset="0.753906"/><stop stop-opacity="1" stop-color="rgb(9.828186%, 4.348755%, 33.042908%)" offset="0.757812"/><stop stop-opacity="1" stop-color="rgb(8.937073%, 4.283142%, 32.081604%)" offset="0.761719"/><stop stop-opacity="1" stop-color="rgb(8.045959%, 4.219055%, 31.1203%)" offset="0.765625"/><stop stop-opacity="1" stop-color="rgb(7.154846%, 4.153442%, 30.158997%)" offset="0.769531"/><stop stop-opacity="1" stop-color="rgb(6.263733%, 4.089355%, 29.197693%)" offset="0.773438"/><stop stop-opacity="1" stop-color="rgb(5.37262%, 4.023743%, 28.236389%)" offset="0.777344"/><stop stop-opacity="1" stop-color="rgb(4.481506%, 3.959656%, 27.276611%)" offset="0.78125"/><stop stop-opacity="1" stop-color="rgb(4.200745%, 3.939819%, 26.972961%)" offset="0.785156"/><stop stop-opacity="1" stop-color="rgb(3.919983%, 3.919983%, 26.669312%)" offset="0.789063"/><stop stop-opacity="1" stop-color="rgb(3.919983%, 3.919983%, 26.669312%)" offset="0.796875"/><stop stop-opacity="1" stop-color="rgb(3.919983%, 3.919983%, 26.669312%)" offset="0.8125"/><stop stop-opacity="1" stop-color="rgb(3.919983%, 3.919983%, 26.669312%)" offset="0.875"/><stop stop-opacity="1" stop-color="rgb(3.919983%, 3.919983%, 26.669312%)" offset="1"/></linearGradient><clipPath id="e8df0edd06"><rect x="0" width="1500" y="0" height="1500"/></clipPath><clipPath id="935c99ec8a"><rect x="0" width="1500" y="0" height="1500"/></clipPath><mask id="954a03eae8"><g filter="url(#8de9ddb560)"><rect x="-150" width="1800" fill="#000000" y="-149.999993" height="1799.99992" fill-opacity="0.9"/></g></mask><clipPath id="79773dc9eb"><path d="M 0.777344 0.289062 L 79 0.289062 L 79 33.023438 L 0.777344 33.023438 Z M 0.777344 0.289062 " clip-rule="nonzero"/></clipPath><clipPath id="6ba11c2a7b"><path d="M 17.144531 0.289062 L 62.636719 0.289062 C 71.671875 0.289062 79 7.617188 79 16.65625 C 79 25.695312 71.671875 33.023438 62.636719 33.023438 L 17.144531 33.023438 C 8.105469 33.023438 0.777344 25.695312 0.777344 16.65625 C 0.777344 7.617188 8.105469 0.289062 17.144531 0.289062 Z M 17.144531 0.289062 " clip-rule="nonzero"/></clipPath><clipPath id="4d78c3b6ec"><path d="M 0.777344 0.289062 L 79 0.289062 L 79 33.023438 L 0.777344 33.023438 Z M 0.777344 0.289062 " clip-rule="nonzero"/></clipPath><clipPath id="e75cad2fe6"><path d="M 17.144531 0.289062 L 62.636719 0.289062 C 71.671875 0.289062 79 7.617188 79 16.65625 C 79 25.695312 71.671875 33.023438 62.636719 33.023438 L 17.144531 33.023438 C 8.105469 33.023438 0.777344 25.695312 0.777344 16.65625 C 0.777344 7.617188 8.105469 0.289062 17.144531 0.289062 Z M 17.144531 0.289062 " clip-rule="nonzero"/></clipPath><clipPath id="a37561a5bd"><rect x="0" width="79" y="0" height="34"/></clipPath><clipPath id="88ee35e723"><rect x="0" width="80" y="0" height="34"/></clipPath><mask id="78cad36030"><g filter="url(#8de9ddb560)"><rect x="-150" width="1800" fill="#000000" y="-149.999993" height="1799.99992" fill-opacity="0.9"/></g></mask><clipPath id="2a6d92c0ca"><path d="M 0.757812 0 L 103 0 L 103 44.679688 L 0.757812 44.679688 Z M 0.757812 0 " clip-rule="nonzero"/></clipPath><clipPath id="6b7559faf8"><path d="M 23.097656 0 L 80.550781 0 C 86.476562 0 92.15625 2.355469 96.347656 6.542969 C 100.535156 10.734375 102.890625 16.414062 102.890625 22.339844 C 102.890625 28.265625 100.535156 33.949219 96.347656 38.136719 C 92.15625 42.328125 86.476562 44.679688 80.550781 44.679688 L 23.097656 44.679688 C 17.171875 44.679688 11.488281 42.328125 7.300781 38.136719 C 3.109375 33.949219 0.757812 28.265625 0.757812 22.339844 C 0.757812 16.414062 3.109375 10.734375 7.300781 6.542969 C 11.488281 2.355469 17.171875 0 23.097656 0 Z M 23.097656 0 " clip-rule="nonzero"/></clipPath><clipPath id="aac4f0af00"><path d="M 0.757812 0 L 103 0 L 103 44.679688 L 0.757812 44.679688 Z M 0.757812 0 " clip-rule="nonzero"/></clipPath><clipPath id="4e02497214"><path d="M 23.097656 0 L 80.550781 0 C 86.476562 0 92.15625 2.355469 96.347656 6.542969 C 100.535156 10.734375 102.890625 16.414062 102.890625 22.339844 C 102.890625 28.265625 100.535156 33.949219 96.347656 38.136719 C 92.15625 42.328125 86.476562 44.679688 80.550781 44.679688 L 23.097656 44.679688 C 17.171875 44.679688 11.488281 42.328125 7.300781 38.136719 C 3.109375 33.949219 0.757812 28.265625 0.757812 22.339844 C 0.757812 16.414062 3.109375 10.734375 7.300781 6.542969 C 11.488281 2.355469 17.171875 0 23.097656 0 Z M 23.097656 0 " clip-rule="nonzero"/></clipPath><clipPath id="71026cacf6"><rect x="0" width="103" y="0" height="45"/></clipPath><clipPath id="bb5ac422ff"><rect x="0" width="104" y="0" height="45"/></clipPath><clipPath id="339560873c"><path d="M 959.125 620.960938 L 1003.523438 620.960938 L 1003.523438 665.359375 L 959.125 665.359375 Z M 959.125 620.960938 " clip-rule="nonzero"/></clipPath><clipPath id="9b246d6f69"><path d="M 981.324219 620.960938 C 969.0625 620.960938 959.125 630.898438 959.125 643.160156 C 959.125 655.417969 969.0625 665.359375 981.324219 665.359375 C 993.582031 665.359375 1003.523438 655.417969 1003.523438 643.160156 C 1003.523438 630.898438 993.582031 620.960938 981.324219 620.960938 Z M 981.324219 620.960938 " clip-rule="nonzero"/></clipPath><clipPath id="339eac7460"><path d="M 0.125 0.960938 L 44.523438 0.960938 L 44.523438 45.359375 L 0.125 45.359375 Z M 0.125 0.960938 " clip-rule="nonzero"/></clipPath><clipPath id="69cc4023c1"><path d="M 22.324219 0.960938 C 10.0625 0.960938 0.125 10.898438 0.125 23.160156 C 0.125 35.417969 10.0625 45.359375 22.324219 45.359375 C 34.582031 45.359375 44.523438 35.417969 44.523438 23.160156 C 44.523438 10.898438 34.582031 0.960938 22.324219 0.960938 Z M 22.324219 0.960938 " clip-rule="nonzero"/></clipPath><clipPath id="b144478ad9"><rect x="0" width="45" y="0" height="46"/></clipPath><clipPath id="42489f6e0b"><path d="M 68 20 L 126 20 L 126 104.878906 L 68 104.878906 Z M 68 20 " clip-rule="nonzero"/></clipPath><clipPath id="589bb7de95"><rect x="0" width="388" y="0" height="105"/></clipPath></defs><rect x="-150" width="1800" fill="#ffffff" y="-149.999993" height="1799.99992" fill-opacity="1"/><rect x="-150" width="1800" fill="#0B0B10" y="-149.999993" height="1799.99992" fill-opacity="1"/><g transform="matrix(1, 0, 0, 1, 0, 0.000000000000112861)"><g clip-path="url(#935c99ec8a)"><g mask="url(#d449d82676)"><g transform="matrix(1, 0, 0, 1, 0, 0.000000000000112861)"><g clip-path="url(#e8df0edd06)"><g clip-path="url(#e9960fc9be)"><rect x="-546" fill="url(#901bd7ce96)" width="2592" y="-545.999976" height="2591.999885"/></g></g></g></g></g></g><g mask="url(#954a03eae8)"><g transform="matrix(1, 0, 0, 1, 156, 815)"><g clip-path="url(#88ee35e723)"><g clip-path="url(#79773dc9eb)"><g clip-path="url(#6ba11c2a7b)"><g transform="matrix(1, 0, 0, 1, 0, 0.000000000000113687)"><g clip-path="url(#a37561a5bd)"><g clip-path="url(#4d78c3b6ec)"><g clip-path="url(#e75cad2fe6)"><path fill="#af16f6" d="M 0.777344 0.289062 L 79.03125 0.289062 L 79.03125 33.023438 L 0.777344 33.023438 Z M 0.777344 0.289062 " fill-opacity="1" fill-rule="nonzero"/></g></g></g></g></g></g></g></g></g><g mask="url(#78cad36030)"><g transform="matrix(1, 0, 0, 1, 93, 750)"><g clip-path="url(#bb5ac422ff)"><g clip-path="url(#2a6d92c0ca)"><g clip-path="url(#6b7559faf8)"><g transform="matrix(1, 0, 0, 1, 0, 0.000000000000113687)"><g clip-path="url(#71026cacf6)"><g clip-path="url(#aac4f0af00)"><g clip-path="url(#4e02497214)"><path fill="#af16f6" d="M 0.757812 0 L 102.859375 0 L 102.859375 44.679688 L 0.757812 44.679688 Z M 0.757812 0 " fill-opacity="1" fill-rule="nonzero"/></g></g></g></g></g></g></g></g></g><g fill="#ffffff" fill-opacity="1"><g transform="translate(609.691085, 822.979373)"><g><path d="M 84.453125 0 L 23.578125 0 C 19.015625 0 15.285156 -1.570312 12.390625 -4.71875 C 9.503906 -7.863281 8.0625 -12.019531 8.0625 -17.1875 C 8.0625 -22.257812 9.476562 -26.289062 12.3125 -29.28125 C 15.15625 -32.28125 18.910156 -33.78125 23.578125 -33.78125 L 81.40625 -33.78125 C 84.75 -33.78125 87.742188 -34.796875 90.390625 -36.828125 C 93.328125 -39.160156 94.796875 -42.253906 94.796875 -46.109375 C 94.796875 -50.054688 93.328125 -53.046875 90.390625 -55.078125 C 87.847656 -56.703125 84.648438 -57.515625 80.796875 -57.515625 L 54.625 -57.515625 C 48.4375 -57.515625 42.65625 -58.734375 37.28125 -61.171875 C 31.90625 -63.609375 27.238281 -67.003906 23.28125 -71.359375 C 19.320312 -75.722656 16.226562 -80.664062 14 -86.1875 C 11.769531 -91.71875 10.65625 -97.476562 10.65625 -103.46875 C 10.65625 -109.25 11.796875 -114.800781 14.078125 -120.125 C 16.359375 -125.457031 19.523438 -130.097656 23.578125 -134.046875 C 27.640625 -138.109375 32.332031 -141.253906 37.65625 -143.484375 C 42.976562 -145.710938 48.632812 -146.828125 54.625 -146.828125 L 104.53125 -146.828125 C 109.300781 -146.828125 113.304688 -145.359375 116.546875 -142.421875 C 119.796875 -139.484375 121.421875 -135.476562 121.421875 -130.40625 C 121.421875 -125.332031 119.847656 -121.171875 116.703125 -117.921875 C 113.460938 -114.679688 109.660156 -113.0625 105.296875 -113.0625 L 55.078125 -113.0625 C 52.140625 -113.0625 49.628906 -111.992188 47.546875 -109.859375 C 45.472656 -107.734375 44.4375 -105.195312 44.4375 -102.25 C 44.4375 -99.007812 45.5 -96.398438 47.625 -94.421875 C 49.757812 -92.441406 52.242188 -91.453125 55.078125 -91.453125 L 83.84375 -91.453125 C 90.132812 -91.453125 96.039062 -90.234375 101.5625 -87.796875 C 107.09375 -85.359375 111.890625 -81.960938 115.953125 -77.609375 C 119.898438 -73.347656 122.988281 -68.398438 125.21875 -62.765625 C 127.457031 -57.140625 128.578125 -51.332031 128.578125 -45.34375 C 128.578125 -39.351562 127.507812 -33.617188 125.375 -28.140625 C 123.25 -22.671875 120.207031 -17.851562 116.25 -13.6875 C 112.195312 -9.425781 107.429688 -6.101562 101.953125 -3.71875 C 96.472656 -1.34375 90.640625 -0.101562 84.453125 0 Z M 84.453125 0 "/></g></g><g transform="translate(744.356489, 822.979373)"><g><path d="M 66.1875 1.671875 C 59.082031 1.671875 52.359375 0.324219 46.015625 -2.359375 C 39.679688 -5.046875 34.082031 -8.820312 29.21875 -13.6875 C 24.34375 -18.5625 20.5625 -24.140625 17.875 -30.421875 C 15.1875 -36.710938 13.84375 -43.410156 13.84375 -50.515625 L 13.84375 -129.9375 C 13.84375 -134.507812 15.519531 -138.46875 18.875 -141.8125 C 22.113281 -145.0625 26.117188 -146.6875 30.890625 -146.6875 C 35.347656 -146.6875 39.203125 -145.0625 42.453125 -141.8125 C 45.796875 -138.46875 47.46875 -134.507812 47.46875 -129.9375 L 48.078125 -51.4375 C 48.078125 -51.226562 48.050781 -50.867188 48 -50.359375 C 47.957031 -49.859375 47.882812 -49.253906 47.78125 -48.546875 C 48.59375 -43.972656 50.75 -40.210938 54.25 -37.265625 C 57.75 -34.328125 61.929688 -32.859375 66.796875 -32.859375 C 69.128906 -32.859375 71.410156 -33.335938 73.640625 -34.296875 C 75.878906 -35.265625 77.859375 -36.5625 79.578125 -38.1875 C 83.234375 -41.539062 85.160156 -45.753906 85.359375 -50.828125 L 85.671875 -52.796875 L 85.671875 -129.796875 C 85.671875 -134.554688 87.289062 -138.5625 90.53125 -141.8125 C 93.78125 -145.0625 97.789062 -146.6875 102.5625 -146.6875 C 107.125 -146.6875 111.023438 -145.0625 114.265625 -141.8125 C 117.515625 -138.5625 119.140625 -134.554688 119.140625 -129.796875 L 119.140625 -52.03125 C 119.140625 -50.914062 119.085938 -50.3125 118.984375 -50.21875 C 119.492188 -45.238281 121.523438 -41.179688 125.078125 -38.046875 C 128.628906 -34.796875 132.785156 -33.171875 137.546875 -33.171875 C 142.617188 -33.171875 147.082031 -34.894531 150.9375 -38.34375 C 154.789062 -41.59375 156.921875 -45.703125 157.328125 -50.671875 L 157.328125 -129.9375 C 157.328125 -134.601562 158.953125 -138.5625 162.203125 -141.8125 C 165.453125 -145.0625 169.457031 -146.6875 174.21875 -146.6875 C 178.789062 -146.6875 182.695312 -145.0625 185.9375 -141.8125 C 189.289062 -138.46875 190.96875 -134.507812 190.96875 -129.9375 L 190.96875 -50.515625 C 190.96875 -43.515625 189.570312 -36.867188 186.78125 -30.578125 C 183.988281 -24.296875 180.054688 -18.664062 174.984375 -13.6875 C 170.015625 -8.820312 164.257812 -5.046875 157.71875 -2.359375 C 151.175781 0.324219 144.351562 1.671875 137.25 1.671875 C 130.445312 1.671875 124.03125 0.457031 118 -1.96875 C 111.96875 -4.40625 106.566406 -7.859375 101.796875 -12.328125 C 96.828125 -7.859375 91.296875 -4.40625 85.203125 -1.96875 C 79.117188 0.457031 72.78125 1.671875 66.1875 1.671875 Z M 66.1875 1.671875 "/></g></g><g transform="translate(947.039334, 822.979373)"><g><path d="M 32.71875 -161.90625 C 27.644531 -161.90625 23.28125 -163.726562 19.625 -167.375 C 15.976562 -171.03125 14.15625 -175.394531 14.15625 -180.46875 C 14.15625 -185.539062 15.976562 -189.898438 19.625 -193.546875 C 23.175781 -197.097656 27.539062 -198.875 32.71875 -198.875 C 37.882812 -198.875 42.242188 -197.097656 45.796875 -193.546875 C 49.453125 -189.898438 51.28125 -185.539062 51.28125 -180.46875 C 51.28125 -175.394531 49.453125 -171.03125 45.796875 -167.375 C 42.148438 -163.726562 37.789062 -161.90625 32.71875 -161.90625 Z M 32.71875 1.375 C 27.945312 1.375 23.9375 -0.25 20.6875 -3.5 C 17.238281 -6.644531 15.515625 -10.601562 15.515625 -15.375 L 15.515625 -129.9375 C 15.515625 -134.601562 17.238281 -138.5625 20.6875 -141.8125 C 22.207031 -143.332031 24.03125 -144.546875 26.15625 -145.453125 C 28.289062 -146.367188 30.523438 -146.828125 32.859375 -146.828125 C 37.429688 -146.828125 41.390625 -145.15625 44.734375 -141.8125 C 47.878906 -138.46875 49.453125 -134.507812 49.453125 -129.9375 L 49.453125 -15.375 C 49.453125 -10.707031 47.828125 -6.75 44.578125 -3.5 C 41.335938 -0.25 37.382812 1.375 32.71875 1.375 Z M 32.71875 1.375 "/></g></g></g><g fill="#ffffff" fill-opacity="1"><g transform="translate(1012.317818, 822.979373)"><g><path d="M 30.734375 52.640625 C 25.867188 52.640625 21.863281 50.914062 18.71875 47.46875 C 15.269531 44.226562 13.546875 40.070312 13.546875 35 L 13.546875 -72.421875 C 13.546875 -82.472656 15.472656 -92.035156 19.328125 -101.109375 C 23.179688 -110.191406 28.554688 -118.179688 35.453125 -125.078125 C 42.347656 -131.972656 50.3125 -137.320312 59.34375 -141.125 C 68.375 -144.925781 77.910156 -146.828125 87.953125 -146.828125 C 97.890625 -146.828125 107.394531 -144.898438 116.46875 -141.046875 C 125.550781 -137.191406 133.492188 -131.867188 140.296875 -125.078125 C 147.085938 -118.179688 152.410156 -110.191406 156.265625 -101.109375 C 160.117188 -92.035156 162.046875 -82.472656 162.046875 -72.421875 C 162.046875 -62.378906 160.144531 -52.867188 156.34375 -43.890625 C 152.539062 -34.921875 147.191406 -26.984375 140.296875 -20.078125 C 133.492188 -13.285156 125.550781 -7.960938 116.46875 -4.109375 C 107.394531 -0.253906 97.890625 1.671875 87.953125 1.671875 C 73.242188 1.671875 59.703125 -2.382812 47.328125 -10.5 L 47.328125 35 C 47.328125 40.070312 45.828125 44.28125 42.828125 47.625 C 39.835938 50.96875 35.804688 52.640625 30.734375 52.640625 Z M 87.953125 -32.109375 C 93.429688 -32.109375 98.628906 -33.144531 103.546875 -35.21875 C 108.460938 -37.300781 112.800781 -40.21875 116.5625 -43.96875 C 120.3125 -47.726562 123.195312 -52.039062 125.21875 -56.90625 C 127.25 -61.78125 128.265625 -66.953125 128.265625 -72.421875 C 128.265625 -77.898438 127.25 -83.070312 125.21875 -87.9375 C 123.195312 -92.8125 120.3125 -97.125 116.5625 -100.875 C 112.90625 -104.53125 108.59375 -107.394531 103.625 -109.46875 C 98.65625 -111.550781 93.429688 -112.59375 87.953125 -112.59375 C 82.472656 -112.59375 77.25 -111.550781 72.28125 -109.46875 C 67.3125 -107.394531 63 -104.53125 59.34375 -100.875 C 55.59375 -97.125 52.675781 -92.8125 50.59375 -87.9375 C 48.507812 -83.070312 47.46875 -77.898438 47.46875 -72.421875 C 47.46875 -66.953125 48.507812 -61.78125 50.59375 -56.90625 C 52.675781 -52.039062 55.59375 -47.726562 59.34375 -43.96875 C 63.09375 -40.21875 67.425781 -37.300781 72.34375 -35.21875 C 77.269531 -33.144531 82.472656 -32.109375 87.953125 -32.109375 Z M 87.953125 -32.109375 "/></g></g></g><g fill="#ffffff" fill-opacity="1"><g transform="translate(1181.067983, 822.979373)"><g><path d="M 80.953125 1.671875 C 70.910156 1.671875 61.398438 -0.226562 52.421875 -4.03125 C 43.441406 -7.832031 35.503906 -13.179688 28.609375 -20.078125 C 21.710938 -26.878906 16.332031 -34.789062 12.46875 -43.8125 C 8.613281 -52.84375 6.6875 -62.378906 6.6875 -72.421875 C 6.6875 -82.472656 8.613281 -92.035156 12.46875 -101.109375 C 16.332031 -110.191406 21.710938 -118.179688 28.609375 -125.078125 C 35.503906 -131.972656 43.441406 -137.320312 52.421875 -141.125 C 61.398438 -144.925781 70.910156 -146.828125 80.953125 -146.828125 C 90.992188 -146.828125 100.550781 -144.898438 109.625 -141.046875 C 118.707031 -137.191406 126.644531 -131.867188 133.4375 -125.078125 C 140.238281 -118.179688 145.566406 -110.191406 149.421875 -101.109375 C 153.273438 -92.035156 155.203125 -82.472656 155.203125 -72.421875 C 155.203125 -62.378906 153.300781 -52.867188 149.5 -43.890625 C 145.695312 -34.921875 140.34375 -26.984375 133.4375 -20.078125 C 126.644531 -13.285156 118.707031 -7.960938 109.625 -4.109375 C 100.550781 -0.253906 90.992188 1.671875 80.953125 1.671875 Z M 80.953125 -32.109375 C 86.523438 -32.109375 91.769531 -33.144531 96.6875 -35.21875 C 101.613281 -37.300781 105.953125 -40.21875 109.703125 -43.96875 C 113.460938 -47.726562 116.351562 -52.039062 118.375 -56.90625 C 120.40625 -61.78125 121.421875 -66.953125 121.421875 -72.421875 C 121.421875 -77.898438 120.378906 -83.070312 118.296875 -87.9375 C 116.222656 -92.8125 113.3125 -97.125 109.5625 -100.875 C 105.90625 -104.53125 101.59375 -107.394531 96.625 -109.46875 C 91.65625 -111.550781 86.429688 -112.59375 80.953125 -112.59375 C 75.578125 -112.59375 70.398438 -111.550781 65.421875 -109.46875 C 60.453125 -107.394531 56.144531 -104.53125 52.5 -100.875 C 48.738281 -97.125 45.816406 -92.8125 43.734375 -87.9375 C 41.660156 -83.070312 40.625 -77.898438 40.625 -72.421875 C 40.625 -66.953125 41.660156 -61.78125 43.734375 -56.90625 C 45.816406 -52.039062 48.738281 -47.726562 52.5 -43.96875 C 56.25 -40.21875 60.554688 -37.300781 65.421875 -35.21875 C 70.296875 -33.144531 75.472656 -32.109375 80.953125 -32.109375 Z M 80.953125 -32.109375 "/></g></g></g><g clip-path="url(#339560873c)"><g clip-path="url(#9b246d6f69)"><g transform="matrix(1, 0, 0, 1, 959, 620)"><g clip-path="url(#b144478ad9)"><g clip-path="url(#339eac7460)"><g clip-path="url(#69cc4023c1)"><path fill="#af16f6" d="M 0.125 0.960938 L 44.523438 0.960938 L 44.523438 45.359375 L 0.125 45.359375 Z M 0.125 0.960938 " fill-opacity="1" fill-rule="nonzero"/></g></g></g></g></g></g><g transform="matrix(1, 0, 0, 1, 604, 870)"><g clip-path="url(#589bb7de95)"><g fill="#af16f6" fill-opacity="1"><g transform="translate(0.535255, 77.666784)"><g><path d="M 31.3125 0.640625 C 27.46875 0.640625 23.796875 -0.101562 20.296875 -1.59375 C 16.804688 -3.082031 13.75 -5.140625 11.125 -7.765625 C 8.457031 -10.429688 6.382812 -13.5 4.90625 -16.96875 C 3.4375 -20.445312 2.703125 -24.128906 2.703125 -28.015625 C 2.703125 -31.898438 3.445312 -35.597656 4.9375 -39.109375 C 6.4375 -42.617188 8.5 -45.710938 11.125 -48.390625 C 13.75 -51.015625 16.804688 -53.070312 20.296875 -54.5625 C 23.796875 -56.050781 27.46875 -56.796875 31.3125 -56.796875 C 35.195312 -56.796875 38.875 -56.0625 42.34375 -54.59375 C 45.820312 -53.125 48.894531 -51.054688 51.5625 -48.390625 C 54.1875 -45.710938 56.234375 -42.628906 57.703125 -39.140625 C 59.179688 -35.648438 59.921875 -31.941406 59.921875 -28.015625 L 59.921875 -6.1875 C 59.921875 -4.332031 59.273438 -2.757812 57.984375 -1.46875 C 56.765625 -0.132812 55.191406 0.53125 53.265625 0.53125 C 51.734375 0.53125 50.414062 0.105469 49.3125 -0.734375 C 48.21875 -1.578125 47.476562 -2.707031 47.09375 -4.125 C 42.34375 -0.945312 37.082031 0.640625 31.3125 0.640625 Z M 31.3125 -12.421875 C 33.4375 -12.421875 35.445312 -12.820312 37.34375 -13.625 C 39.25 -14.425781 40.925781 -15.554688 42.375 -17.015625 C 43.789062 -18.460938 44.890625 -20.128906 45.671875 -22.015625 C 46.460938 -23.898438 46.859375 -25.898438 46.859375 -28.015625 C 46.859375 -30.140625 46.460938 -32.140625 45.671875 -34.015625 C 44.890625 -35.898438 43.789062 -37.570312 42.375 -39.03125 C 40.96875 -40.4375 39.300781 -41.539062 37.375 -42.34375 C 35.457031 -43.15625 33.4375 -43.5625 31.3125 -43.5625 C 29.226562 -43.5625 27.242188 -43.164062 25.359375 -42.375 C 23.484375 -41.59375 21.816406 -40.476562 20.359375 -39.03125 C 18.910156 -37.570312 17.789062 -35.898438 17 -34.015625 C 16.21875 -32.140625 15.828125 -30.140625 15.828125 -28.015625 C 15.828125 -25.898438 16.21875 -23.898438 17 -22.015625 C 17.789062 -20.128906 18.910156 -18.460938 20.359375 -17.015625 C 21.773438 -15.554688 23.425781 -14.425781 25.3125 -13.625 C 27.195312 -12.820312 29.195312 -12.421875 31.3125 -12.421875 Z M 31.3125 -12.421875 "/></g></g></g><g clip-path="url(#42489f6e0b)"><g fill="#af16f6" fill-opacity="1"><g transform="translate(65.80547, 77.666784)"><g><path d="M 19.84375 26.546875 C 18.070312 26.546875 16.441406 25.898438 14.953125 24.609375 C 13.492188 23.390625 12.765625 21.859375 12.765625 20.015625 C 12.765625 18.210938 13.726562 16.46875 15.65625 14.78125 C 17.34375 13.28125 19.660156 12.039062 22.609375 11.0625 C 24.484375 10.507812 26.285156 10.140625 28.015625 9.953125 C 28.835938 9.867188 29.769531 9.804688 30.8125 9.765625 C 31.851562 9.734375 33 9.71875 34.25 9.71875 C 38.84375 9.71875 42.160156 9.085938 44.203125 7.828125 C 45.222656 7.203125 45.957031 6.394531 46.40625 5.40625 C 46.863281 4.425781 47.09375 3.210938 47.09375 1.765625 C 47.09375 0.546875 46.953125 -0.410156 46.671875 -1.109375 C 46.398438 -1.816406 46.03125 -2.488281 45.5625 -3.125 C 41.164062 -0.613281 36.414062 0.640625 31.3125 0.640625 C 27.425781 0.640625 23.742188 -0.09375 20.265625 -1.5625 C 16.796875 -3.03125 13.726562 -5.097656 11.0625 -7.765625 C 8.394531 -10.398438 6.316406 -13.460938 4.828125 -16.953125 C 3.335938 -20.441406 2.59375 -24.128906 2.59375 -28.015625 C 2.59375 -31.898438 3.335938 -35.597656 4.828125 -39.109375 C 6.316406 -42.617188 8.394531 -45.710938 11.0625 -48.390625 C 13.726562 -51.054688 16.796875 -53.125 20.265625 -54.59375 C 23.742188 -56.0625 27.425781 -56.796875 31.3125 -56.796875 C 35.195312 -56.796875 38.894531 -56.050781 42.40625 -54.5625 C 45.914062 -53.070312 48.988281 -51.015625 51.625 -48.390625 C 54.25 -45.710938 56.304688 -42.617188 57.796875 -39.109375 C 59.285156 -35.597656 60.03125 -31.898438 60.03125 -28.015625 C 60.03125 -22.285156 58.441406 -17.03125 55.265625 -12.25 C 58.410156 -8.988281 59.984375 -4.359375 59.984375 1.640625 C 59.984375 5.179688 59.398438 8.285156 58.234375 10.953125 C 57.078125 13.617188 55.460938 15.851562 53.390625 17.65625 C 51.421875 19.34375 49.148438 20.617188 46.578125 21.484375 C 44.015625 22.347656 41.300781 22.78125 38.4375 22.78125 C 37.300781 22.78125 36.144531 22.722656 34.96875 22.609375 C 33.789062 22.484375 32.628906 22.421875 31.484375 22.421875 C 30.035156 22.421875 28.710938 22.617188 27.515625 23.015625 C 26.316406 23.410156 25.050781 24.117188 23.71875 25.140625 C 22.5 26.078125 21.207031 26.546875 19.84375 26.546875 Z M 31.3125 -12.421875 C 33.46875 -12.421875 35.5 -12.820312 37.40625 -13.625 C 39.3125 -14.425781 40.988281 -15.554688 42.4375 -17.015625 C 43.882812 -18.460938 45 -20.128906 45.78125 -22.015625 C 46.570312 -23.898438 46.96875 -25.898438 46.96875 -28.015625 C 46.96875 -30.140625 46.566406 -32.140625 45.765625 -34.015625 C 44.960938 -35.898438 43.832031 -37.570312 42.375 -39.03125 C 40.96875 -40.4375 39.300781 -41.539062 37.375 -42.34375 C 35.457031 -43.15625 33.4375 -43.5625 31.3125 -43.5625 C 29.226562 -43.5625 27.222656 -43.15625 25.296875 -42.34375 C 23.378906 -41.539062 21.71875 -40.4375 20.3125 -39.03125 C 18.851562 -37.570312 17.722656 -35.898438 16.921875 -34.015625 C 16.117188 -32.140625 15.71875 -30.140625 15.71875 -28.015625 C 15.71875 -25.898438 16.117188 -23.898438 16.921875 -22.015625 C 17.722656 -20.128906 18.851562 -18.460938 20.3125 -17.015625 C 21.757812 -15.554688 23.425781 -14.425781 25.3125 -13.625 C 27.195312 -12.820312 29.195312 -12.421875 31.3125 -12.421875 Z M 31.3125 -12.421875 "/></g></g></g></g><g fill="#af16f6" fill-opacity="1"><g transform="translate(128.603774, 77.666784)"><g><path d="M 31.484375 0.640625 C 27.597656 0.640625 23.890625 -0.101562 20.359375 -1.59375 C 16.828125 -3.082031 13.726562 -5.140625 11.0625 -7.765625 C 8.394531 -10.398438 6.316406 -13.460938 4.828125 -16.953125 C 3.335938 -20.441406 2.59375 -24.128906 2.59375 -28.015625 C 2.59375 -31.941406 3.335938 -35.660156 4.828125 -39.171875 C 6.316406 -42.679688 8.394531 -45.753906 11.0625 -48.390625 C 13.726562 -51.015625 16.828125 -53.070312 20.359375 -54.5625 C 23.890625 -56.050781 27.597656 -56.796875 31.484375 -56.796875 C 35.335938 -56.796875 39.007812 -56.066406 42.5 -54.609375 C 45.988281 -53.160156 49.066406 -51.125 51.734375 -48.5 C 54.367188 -45.90625 56.453125 -42.863281 57.984375 -39.375 C 59.515625 -35.882812 60.316406 -32.21875 60.390625 -28.375 C 60.390625 -26.488281 59.789062 -24.972656 58.59375 -23.828125 C 57.394531 -22.691406 55.851562 -22.125 53.96875 -22.125 L 17.1875 -22.125 C 18.207031 -19.144531 20.03125 -16.695312 22.65625 -14.78125 C 25.207031 -12.851562 28.148438 -11.890625 31.484375 -11.890625 C 33.210938 -11.890625 34.644531 -12.035156 35.78125 -12.328125 C 36.925781 -12.617188 38.023438 -13.082031 39.078125 -13.71875 C 40.492188 -14.539062 41.769531 -14.953125 42.90625 -14.953125 C 44.675781 -14.953125 46.207031 -14.265625 47.5 -12.890625 C 48.71875 -11.554688 49.328125 -9.988281 49.328125 -8.1875 C 49.328125 -6.882812 48.894531 -5.679688 48.03125 -4.578125 C 47.164062 -3.484375 45.945312 -2.546875 44.375 -1.765625 C 42.8125 -0.984375 40.921875 -0.390625 38.703125 0.015625 C 36.484375 0.429688 34.078125 0.640625 31.484375 0.640625 Z M 16.78125 -33.078125 L 46.96875 -33.078125 C 46.03125 -36.378906 44.1875 -39.085938 41.4375 -41.203125 C 38.65625 -43.285156 35.414062 -44.328125 31.71875 -44.328125 C 28.070312 -44.328125 24.875 -43.242188 22.125 -41.078125 C 20.832031 -40.097656 19.722656 -38.910156 18.796875 -37.515625 C 17.878906 -36.128906 17.207031 -34.648438 16.78125 -33.078125 Z M 16.78125 -33.078125 "/></g></g></g><g fill="#af16f6" fill-opacity="1"><g transform="translate(191.519788, 77.666784)"><g><path d="M 10.484375 0 C 8.597656 0 7.023438 -0.628906 5.765625 -1.890625 C 4.390625 -3.140625 3.703125 -4.648438 3.703125 -6.421875 L 3.703125 -28.953125 C 3.703125 -32.765625 4.410156 -36.359375 5.828125 -39.734375 C 7.242188 -43.109375 9.222656 -46.085938 11.765625 -48.671875 C 14.285156 -51.265625 17.210938 -53.265625 20.546875 -54.671875 C 23.878906 -56.085938 27.445312 -56.796875 31.25 -56.796875 C 35.0625 -56.796875 38.671875 -56.078125 42.078125 -54.640625 C 45.492188 -53.210938 48.476562 -51.222656 51.03125 -48.671875 C 53.625 -46.085938 55.632812 -43.097656 57.0625 -39.703125 C 58.5 -36.304688 59.21875 -32.722656 59.21875 -28.953125 L 59.21875 -6.421875 C 59.21875 -4.609375 58.609375 -3.097656 57.390625 -1.890625 C 56.128906 -0.628906 54.597656 0 52.796875 0 C 50.953125 0 49.398438 -0.628906 48.140625 -1.890625 C 46.804688 -3.097656 46.140625 -4.609375 46.140625 -6.421875 L 46.140625 -28.90625 C 46.109375 -30.90625 45.695312 -32.804688 44.90625 -34.609375 C 44.125 -36.410156 43.046875 -37.976562 41.671875 -39.3125 C 40.296875 -40.6875 38.707031 -41.753906 36.90625 -42.515625 C 35.101562 -43.285156 33.21875 -43.671875 31.25 -43.671875 C 29.207031 -43.671875 27.3125 -43.296875 25.5625 -42.546875 C 23.820312 -41.804688 22.285156 -40.769531 20.953125 -39.4375 C 19.660156 -38.101562 18.648438 -36.523438 17.921875 -34.703125 C 17.191406 -32.878906 16.828125 -30.960938 16.828125 -28.953125 L 16.828125 -6.421875 C 16.828125 -4.609375 16.222656 -3.097656 15.015625 -1.890625 C 13.753906 -0.628906 12.242188 0 10.484375 0 Z M 10.484375 0 "/></g></g></g><g fill="#af16f6" fill-opacity="1"><g transform="translate(256.142598, 77.666784)"><g><path d="M 31.3125 0.640625 C 27.425781 0.640625 23.742188 -0.09375 20.265625 -1.5625 C 16.796875 -3.03125 13.726562 -5.097656 11.0625 -7.765625 C 8.394531 -10.398438 6.316406 -13.460938 4.828125 -16.953125 C 3.335938 -20.441406 2.59375 -24.128906 2.59375 -28.015625 C 2.59375 -31.898438 3.335938 -35.597656 4.828125 -39.109375 C 6.316406 -42.617188 8.394531 -45.710938 11.0625 -48.390625 C 13.726562 -51.054688 16.796875 -53.125 20.265625 -54.59375 C 23.742188 -56.0625 27.425781 -56.796875 31.3125 -56.796875 C 35.28125 -56.796875 38.488281 -56.164062 40.9375 -54.90625 C 43.382812 -53.65625 45.394531 -51.738281 46.96875 -49.15625 L 46.96875 -70.8125 C 46.96875 -72.769531 47.578125 -74.378906 48.796875 -75.640625 C 50.085938 -76.929688 51.640625 -77.578125 53.453125 -77.578125 C 55.296875 -77.578125 56.863281 -76.929688 58.15625 -75.640625 C 59.40625 -74.265625 60.03125 -72.65625 60.03125 -70.8125 L 60.03125 -27.71875 C 60 -23.875 59.234375 -20.234375 57.734375 -16.796875 C 56.242188 -13.367188 54.164062 -10.335938 51.5 -7.703125 C 48.875 -5.078125 45.8125 -3.03125 42.3125 -1.5625 C 38.820312 -0.09375 35.15625 0.640625 31.3125 0.640625 Z M 31.3125 -12.421875 C 33.46875 -12.421875 35.5 -12.820312 37.40625 -13.625 C 39.3125 -14.425781 40.988281 -15.554688 42.4375 -17.015625 C 43.882812 -18.460938 45 -20.128906 45.78125 -22.015625 C 46.570312 -23.898438 46.96875 -25.898438 46.96875 -28.015625 C 46.96875 -30.140625 46.566406 -32.140625 45.765625 -34.015625 C 44.960938 -35.898438 43.832031 -37.570312 42.375 -39.03125 C 40.96875 -40.4375 39.300781 -41.539062 37.375 -42.34375 C 35.457031 -43.15625 33.4375 -43.5625 31.3125 -43.5625 C 29.226562 -43.5625 27.222656 -43.15625 25.296875 -42.34375 C 23.378906 -41.539062 21.71875 -40.4375 20.3125 -39.03125 C 18.851562 -37.570312 17.722656 -35.898438 16.921875 -34.015625 C 16.117188 -32.140625 15.71875 -30.140625 15.71875 -28.015625 C 15.71875 -25.898438 16.117188 -23.898438 16.921875 -22.015625 C 17.722656 -20.128906 18.851562 -18.460938 20.3125 -17.015625 C 21.757812 -15.554688 23.425781 -14.425781 25.3125 -13.625 C 27.195312 -12.820312 29.195312 -12.421875 31.3125 -12.421875 Z M 31.3125 -12.421875 "/></g></g></g><g fill="#af16f6" fill-opacity="1"><g transform="translate(321.412813, 77.666784)"><g><path d="M 31.3125 0.640625 C 27.46875 0.640625 23.796875 -0.101562 20.296875 -1.59375 C 16.804688 -3.082031 13.75 -5.140625 11.125 -7.765625 C 8.457031 -10.429688 6.382812 -13.5 4.90625 -16.96875 C 3.4375 -20.445312 2.703125 -24.128906 2.703125 -28.015625 C 2.703125 -31.898438 3.445312 -35.597656 4.9375 -39.109375 C 6.4375 -42.617188 8.5 -45.710938 11.125 -48.390625 C 13.75 -51.015625 16.804688 -53.070312 20.296875 -54.5625 C 23.796875 -56.050781 27.46875 -56.796875 31.3125 -56.796875 C 35.195312 -56.796875 38.875 -56.0625 42.34375 -54.59375 C 45.820312 -53.125 48.894531 -51.054688 51.5625 -48.390625 C 54.1875 -45.710938 56.234375 -42.628906 57.703125 -39.140625 C 59.179688 -35.648438 59.921875 -31.941406 59.921875 -28.015625 L 59.921875 -6.1875 C 59.921875 -4.332031 59.273438 -2.757812 57.984375 -1.46875 C 56.765625 -0.132812 55.191406 0.53125 53.265625 0.53125 C 51.734375 0.53125 50.414062 0.105469 49.3125 -0.734375 C 48.21875 -1.578125 47.476562 -2.707031 47.09375 -4.125 C 42.34375 -0.945312 37.082031 0.640625 31.3125 0.640625 Z M 31.3125 -12.421875 C 33.4375 -12.421875 35.445312 -12.820312 37.34375 -13.625 C 39.25 -14.425781 40.925781 -15.554688 42.375 -17.015625 C 43.789062 -18.460938 44.890625 -20.128906 45.671875 -22.015625 C 46.460938 -23.898438 46.859375 -25.898438 46.859375 -28.015625 C 46.859375 -30.140625 46.460938 -32.140625 45.671875 -34.015625 C 44.890625 -35.898438 43.789062 -37.570312 42.375 -39.03125 C 40.96875 -40.4375 39.300781 -41.539062 37.375 -42.34375 C 35.457031 -43.15625 33.4375 -43.5625 31.3125 -43.5625 C 29.226562 -43.5625 27.242188 -43.164062 25.359375 -42.375 C 23.484375 -41.59375 21.816406 -40.476562 20.359375 -39.03125 C 18.910156 -37.570312 17.789062 -35.898438 17 -34.015625 C 16.21875 -32.140625 15.828125 -30.140625 15.828125 -28.015625 C 15.828125 -25.898438 16.21875 -23.898438 17 -22.015625 C 17.789062 -20.128906 18.910156 -18.460938 20.359375 -17.015625 C 21.773438 -15.554688 23.425781 -14.425781 25.3125 -13.625 C 27.195312 -12.820312 29.195312 -12.421875 31.3125 -12.421875 Z M 31.3125 -12.421875 "/></g></g></g></g></g></svg>